<svg xmlns="http://www.w3.org/2000/svg" xmlns:xlink="http://www.w3.org/1999/xlink" width="100" zoomAndPan="magnify" viewBox="0 0 75 74.999997" height="100" preserveAspectRatio="xMidYMid meet" version="1.0"><defs><clipPath id="3cbb194c82"><path d="M 16 56 L 58 56 L 58 62.59375 L 16 62.59375 Z M 16 56 " clip-rule="nonzero"/></clipPath><clipPath id="da66acf4b6"><path d="M 34 12.34375 L 41 12.34375 L 41 54 L 34 54 Z M 34 12.34375 " clip-rule="nonzero"/></clipPath><clipPath id="fd3930808a"><path d="M 4.6875 40 L 27 40 L 27 51 L 4.6875 51 Z M 4.6875 40 " clip-rule="nonzero"/></clipPath><clipPath id="4ddeae36fa"><path d="M 48 25 L 69.9375 25 L 69.9375 36 L 48 36 Z M 48 25 " clip-rule="nonzero"/></clipPath><clipPath id="a8f4ea0bd1"><path d="M 38 12.34375 L 61 12.34375 L 61 22 L 38 22 Z M 38 12.34375 " clip-rule="nonzero"/></clipPath></defs><g clip-path="url(#3cbb194c82)"><path fill="#000000" d="M 56.847656 62.59375 L 17.78125 62.59375 C 17.636719 62.59375 17.496094 62.566406 17.363281 62.511719 C 17.230469 62.457031 17.113281 62.378906 17.011719 62.277344 C 16.910156 62.171875 16.832031 62.054688 16.777344 61.921875 C 16.722656 61.789062 16.695312 61.648438 16.695312 61.503906 L 16.695312 57.144531 C 16.695312 57 16.722656 56.863281 16.777344 56.726562 C 16.832031 56.59375 16.910156 56.476562 17.011719 56.375 C 17.113281 56.273438 17.230469 56.191406 17.363281 56.136719 C 17.496094 56.082031 17.636719 56.054688 17.78125 56.054688 L 56.847656 56.054688 C 56.992188 56.054688 57.132812 56.082031 57.265625 56.136719 C 57.398438 56.191406 57.515625 56.273438 57.617188 56.375 C 57.71875 56.476562 57.796875 56.59375 57.851562 56.726562 C 57.90625 56.859375 57.933594 57 57.933594 57.144531 L 57.933594 61.503906 C 57.933594 61.648438 57.90625 61.789062 57.851562 61.921875 C 57.796875 62.054688 57.71875 62.171875 57.617188 62.277344 C 57.515625 62.378906 57.398438 62.457031 57.265625 62.511719 C 57.132812 62.566406 56.992188 62.59375 56.847656 62.59375 Z M 18.863281 60.414062 L 55.761719 60.414062 L 55.761719 58.234375 L 18.863281 58.234375 Z M 18.863281 60.414062 " fill-opacity="1" fill-rule="nonzero"/></g><g clip-path="url(#da66acf4b6)"><path fill="#000000" d="M 39.484375 53.875 L 35.144531 53.875 C 35 53.875 34.859375 53.847656 34.726562 53.792969 C 34.59375 53.738281 34.476562 53.65625 34.375 53.554688 C 34.273438 53.453125 34.195312 53.335938 34.140625 53.203125 C 34.085938 53.070312 34.058594 52.929688 34.058594 52.785156 L 34.058594 13.542969 C 34.058594 13.398438 34.085938 13.261719 34.140625 13.125 C 34.195312 12.992188 34.273438 12.875 34.375 12.773438 C 34.476562 12.671875 34.59375 12.59375 34.726562 12.535156 C 34.863281 12.480469 35 12.453125 35.144531 12.453125 L 39.484375 12.453125 C 39.628906 12.453125 39.765625 12.480469 39.898438 12.535156 C 40.03125 12.59375 40.148438 12.671875 40.253906 12.773438 C 40.355469 12.875 40.433594 12.992188 40.488281 13.125 C 40.542969 13.261719 40.570312 13.398438 40.570312 13.542969 L 40.570312 52.785156 C 40.570312 52.929688 40.542969 53.070312 40.488281 53.203125 C 40.433594 53.335938 40.355469 53.453125 40.253906 53.554688 C 40.148438 53.65625 40.03125 53.738281 39.898438 53.792969 C 39.765625 53.847656 39.628906 53.875 39.484375 53.875 Z M 36.230469 51.695312 L 38.398438 51.695312 L 38.398438 14.632812 L 36.230469 14.632812 Z M 36.230469 51.695312 " fill-opacity="1" fill-rule="nonzero"/></g><g clip-path="url(#fd3930808a)"><path fill="#000000" d="M 15.609375 50.605469 C 9.625 50.605469 4.757812 46.691406 4.757812 41.882812 C 4.757812 41.738281 4.785156 41.601562 4.839844 41.46875 C 4.894531 41.332031 4.972656 41.214844 5.074219 41.113281 C 5.175781 41.011719 5.292969 40.933594 5.425781 40.878906 C 5.558594 40.820312 5.699219 40.792969 5.84375 40.792969 L 25.375 40.792969 C 25.519531 40.792969 25.660156 40.820312 25.792969 40.878906 C 25.925781 40.933594 26.042969 41.011719 26.144531 41.113281 C 26.246094 41.214844 26.324219 41.332031 26.378906 41.46875 C 26.433594 41.601562 26.460938 41.738281 26.460938 41.882812 C 26.460938 46.691406 21.59375 50.605469 15.609375 50.605469 Z M 7.046875 42.976562 C 7.738281 46.0625 11.316406 48.425781 15.609375 48.425781 C 19.902344 48.425781 23.480469 46.0625 24.171875 42.976562 Z M 7.046875 42.976562 " fill-opacity="1" fill-rule="nonzero"/></g><path fill="#000000" d="M 23.207031 42.976562 C 22.828125 42.976562 22.53125 42.820312 22.316406 42.507812 L 14.71875 31.609375 C 14.640625 31.492188 14.589844 31.363281 14.5625 31.222656 C 14.535156 31.082031 14.535156 30.945312 14.5625 30.804688 C 14.585938 30.667969 14.640625 30.539062 14.714844 30.417969 C 14.792969 30.300781 14.890625 30.199219 15.003906 30.117188 C 15.121094 30.035156 15.246094 29.980469 15.382812 29.949219 C 15.523438 29.917969 15.660156 29.914062 15.800781 29.933594 C 15.9375 29.957031 16.070312 30.003906 16.191406 30.078125 C 16.308594 30.152344 16.414062 30.246094 16.496094 30.359375 L 24.09375 41.261719 C 24.34375 41.621094 24.371094 41.996094 24.167969 42.386719 C 23.964844 42.777344 23.644531 42.972656 23.207031 42.976562 Z M 23.207031 42.976562 " fill-opacity="1" fill-rule="nonzero"/><path fill="#000000" d="M 8.011719 42.976562 C 7.574219 42.972656 7.253906 42.777344 7.050781 42.386719 C 6.847656 41.996094 6.875 41.621094 7.125 41.261719 L 14.722656 30.359375 C 14.800781 30.238281 14.902344 30.132812 15.023438 30.050781 C 15.148438 29.96875 15.28125 29.914062 15.425781 29.886719 C 15.566406 29.859375 15.710938 29.859375 15.855469 29.890625 C 16 29.921875 16.132812 29.980469 16.25 30.0625 C 16.371094 30.148438 16.46875 30.253906 16.546875 30.378906 C 16.625 30.503906 16.675781 30.636719 16.699219 30.785156 C 16.722656 30.929688 16.71875 31.074219 16.683594 31.21875 C 16.648438 31.359375 16.585938 31.492188 16.5 31.609375 L 8.902344 42.507812 C 8.6875 42.820312 8.390625 42.976562 8.011719 42.976562 Z M 8.011719 42.976562 " fill-opacity="1" fill-rule="nonzero"/><g clip-path="url(#4ddeae36fa)"><path fill="#000000" d="M 59.019531 35.34375 C 53.035156 35.34375 48.167969 31.433594 48.167969 26.625 C 48.167969 26.480469 48.195312 26.339844 48.25 26.207031 C 48.304688 26.074219 48.382812 25.957031 48.484375 25.855469 C 48.585938 25.75 48.703125 25.671875 48.835938 25.617188 C 48.96875 25.5625 49.109375 25.535156 49.25 25.535156 L 68.785156 25.535156 C 68.929688 25.535156 69.070312 25.5625 69.203125 25.617188 C 69.335938 25.671875 69.453125 25.75 69.554688 25.855469 C 69.65625 25.957031 69.734375 26.074219 69.789062 26.207031 C 69.84375 26.339844 69.871094 26.480469 69.871094 26.625 C 69.871094 31.433594 65.003906 35.34375 59.019531 35.34375 Z M 50.457031 27.714844 C 51.148438 30.804688 54.726562 33.164062 59.019531 33.164062 C 63.3125 33.164062 66.890625 30.804688 67.582031 27.714844 Z M 50.457031 27.714844 " fill-opacity="1" fill-rule="nonzero"/></g><path fill="#000000" d="M 15.609375 32.074219 C 15.464844 32.074219 15.328125 32.046875 15.195312 31.992188 C 15.0625 31.9375 14.945312 31.855469 14.839844 31.753906 C 14.738281 31.652344 14.660156 31.535156 14.605469 31.402344 C 14.550781 31.269531 14.523438 31.128906 14.523438 30.984375 L 14.523438 28.804688 C 14.523438 28.574219 14.589844 28.363281 14.722656 28.171875 C 14.859375 27.984375 15.035156 27.851562 15.25 27.773438 L 34.785156 20.910156 C 34.921875 20.859375 35.0625 20.839844 35.203125 20.847656 C 35.347656 20.855469 35.484375 20.894531 35.617188 20.957031 C 35.746094 21.019531 35.859375 21.105469 35.953125 21.210938 C 36.050781 21.320312 36.121094 21.441406 36.167969 21.578125 C 36.214844 21.714844 36.234375 21.855469 36.226562 22 C 36.21875 22.144531 36.183594 22.28125 36.121094 22.410156 C 36.058594 22.542969 35.972656 22.65625 35.867188 22.75 C 35.757812 22.847656 35.636719 22.917969 35.5 22.96875 L 16.695312 29.578125 L 16.695312 30.984375 C 16.695312 31.128906 16.667969 31.269531 16.613281 31.402344 C 16.558594 31.535156 16.476562 31.652344 16.375 31.753906 C 16.273438 31.855469 16.15625 31.9375 16.023438 31.992188 C 15.890625 32.046875 15.753906 32.074219 15.609375 32.074219 Z M 15.609375 32.074219 " fill-opacity="1" fill-rule="nonzero"/><g clip-path="url(#a8f4ea0bd1)"><path fill="#000000" d="M 39.484375 21.5 C 39.21875 21.503906 38.984375 21.417969 38.78125 21.246094 C 38.578125 21.074219 38.457031 20.855469 38.410156 20.59375 C 38.367188 20.332031 38.414062 20.085938 38.546875 19.855469 C 38.683594 19.625 38.875 19.46875 39.125 19.382812 L 58.660156 12.515625 C 58.828125 12.457031 58.996094 12.4375 59.171875 12.464844 C 59.34375 12.488281 59.503906 12.550781 59.648438 12.65625 C 59.792969 12.757812 59.902344 12.886719 59.984375 13.042969 C 60.0625 13.199219 60.105469 13.367188 60.105469 13.542969 L 60.105469 15.722656 C 60.105469 15.867188 60.078125 16.007812 60.023438 16.140625 C 59.964844 16.273438 59.886719 16.394531 59.785156 16.496094 C 59.683594 16.597656 59.566406 16.675781 59.433594 16.730469 C 59.300781 16.785156 59.164062 16.8125 59.019531 16.8125 C 58.875 16.8125 58.738281 16.785156 58.605469 16.730469 C 58.472656 16.675781 58.355469 16.597656 58.25 16.496094 C 58.148438 16.394531 58.070312 16.273438 58.015625 16.140625 C 57.960938 16.007812 57.933594 15.867188 57.933594 15.722656 L 57.933594 15.078125 L 39.84375 21.441406 C 39.726562 21.480469 39.609375 21.5 39.484375 21.5 Z M 39.484375 21.5 " fill-opacity="1" fill-rule="nonzero"/></g><path fill="#000000" d="M 66.617188 27.714844 C 66.238281 27.714844 65.941406 27.558594 65.726562 27.25 L 58.128906 16.347656 C 58.042969 16.230469 57.980469 16.101562 57.945312 15.957031 C 57.910156 15.8125 57.90625 15.667969 57.929688 15.523438 C 57.953125 15.378906 58 15.242188 58.078125 15.117188 C 58.15625 14.992188 58.257812 14.886719 58.378906 14.804688 C 58.496094 14.71875 58.628906 14.660156 58.773438 14.632812 C 58.917969 14.601562 59.058594 14.597656 59.203125 14.625 C 59.347656 14.65625 59.480469 14.710938 59.601562 14.792969 C 59.726562 14.875 59.828125 14.976562 59.90625 15.097656 L 67.503906 26 C 67.753906 26.359375 67.78125 26.738281 67.578125 27.128906 C 67.375 27.519531 67.054688 27.714844 66.617188 27.714844 Z M 66.617188 27.714844 " fill-opacity="1" fill-rule="nonzero"/><path fill="#000000" d="M 51.421875 27.714844 C 50.984375 27.714844 50.664062 27.519531 50.460938 27.128906 C 50.257812 26.738281 50.285156 26.359375 50.535156 26 L 58.132812 15.097656 C 58.214844 14.984375 58.316406 14.890625 58.4375 14.820312 C 58.558594 14.746094 58.691406 14.699219 58.828125 14.675781 C 58.96875 14.652344 59.105469 14.65625 59.242188 14.6875 C 59.382812 14.71875 59.507812 14.777344 59.625 14.859375 C 59.738281 14.9375 59.835938 15.039062 59.914062 15.15625 C 59.988281 15.277344 60.039062 15.40625 60.066406 15.546875 C 60.09375 15.683594 60.09375 15.824219 60.066406 15.960938 C 60.039062 16.101562 59.988281 16.230469 59.910156 16.347656 L 52.3125 27.25 C 52.097656 27.558594 51.800781 27.714844 51.421875 27.714844 Z M 51.421875 27.714844 " fill-opacity="1" fill-rule="nonzero"/><path fill="#000000" d="M 45.996094 58.234375 L 28.632812 58.234375 C 28.488281 58.234375 28.351562 58.207031 28.21875 58.152344 C 28.082031 58.097656 27.964844 58.019531 27.863281 57.914062 C 27.761719 57.8125 27.683594 57.695312 27.628906 57.5625 C 27.574219 57.429688 27.546875 57.289062 27.546875 57.144531 L 27.546875 52.785156 C 27.546875 52.640625 27.574219 52.5 27.628906 52.367188 C 27.683594 52.234375 27.761719 52.117188 27.863281 52.015625 C 27.964844 51.910156 28.082031 51.832031 28.21875 51.777344 C 28.351562 51.722656 28.488281 51.695312 28.632812 51.695312 L 45.996094 51.695312 C 46.140625 51.695312 46.277344 51.722656 46.410156 51.777344 C 46.542969 51.832031 46.660156 51.910156 46.761719 52.015625 C 46.867188 52.117188 46.945312 52.234375 47 52.367188 C 47.054688 52.5 47.082031 52.640625 47.082031 52.785156 L 47.082031 57.144531 C 47.082031 57.289062 47.054688 57.429688 47 57.5625 C 46.945312 57.695312 46.867188 57.8125 46.761719 57.914062 C 46.660156 58.019531 46.542969 58.097656 46.410156 58.152344 C 46.277344 58.207031 46.140625 58.234375 45.996094 58.234375 Z M 29.71875 56.054688 L 44.910156 56.054688 L 44.910156 53.875 L 29.71875 53.875 Z M 29.71875 56.054688 " fill-opacity="1" fill-rule="nonzero"/></svg>