<svg xmlns="http://www.w3.org/2000/svg" xmlns:xlink="http://www.w3.org/1999/xlink" width="100" zoomAndPan="magnify" viewBox="0 0 75 74.999997" height="100" preserveAspectRatio="xMidYMid meet" version="1.0"><defs><clipPath id="a7d93f048c"><path d="M 16 65 L 20 65 L 20 68.679688 L 16 68.679688 Z M 16 65 " clip-rule="nonzero"/></clipPath><clipPath id="990bb6ce54"><path d="M 55 65 L 59 65 L 59 68.679688 L 55 68.679688 Z M 55 65 " clip-rule="nonzero"/></clipPath><clipPath id="4c4d7d700b"><path d="M 17 66 L 58 66 L 58 68.679688 L 17 68.679688 Z M 17 66 " clip-rule="nonzero"/></clipPath><clipPath id="403342470d"><path d="M 17 6.429688 L 58 6.429688 L 58 27 L 17 27 Z M 17 6.429688 " clip-rule="nonzero"/></clipPath><clipPath id="c844329cee"><path d="M 19 52 L 53 52 L 53 68.679688 L 19 68.679688 Z M 19 52 " clip-rule="nonzero"/></clipPath><clipPath id="b003570c5e"><path d="M 51 24 L 65.953125 24 L 65.953125 27 L 51 27 Z M 51 24 " clip-rule="nonzero"/></clipPath><clipPath id="0410de5616"><path d="M 51 24 L 65.953125 24 L 65.953125 33 L 51 33 Z M 51 24 " clip-rule="nonzero"/></clipPath></defs><path fill="#000000" d="M 17.152344 60.417969 C 16.59375 60.417969 16.140625 59.960938 16.140625 59.402344 C 16.140625 55.476562 19.320312 52.285156 23.230469 52.285156 C 23.789062 52.285156 24.242188 52.742188 24.242188 53.300781 C 24.242188 53.863281 23.789062 54.320312 23.230469 54.320312 C 20.4375 54.320312 18.167969 56.597656 18.167969 59.402344 C 18.167969 59.960938 17.714844 60.417969 17.152344 60.417969 Z M 17.152344 60.417969 " fill-opacity="1" fill-rule="nonzero"/><path fill="#000000" d="M 57.652344 60.414062 C 57.089844 60.414062 56.636719 59.960938 56.636719 59.398438 C 56.636719 56.597656 54.367188 54.320312 51.578125 54.320312 C 51.015625 54.320312 50.5625 53.867188 50.5625 53.304688 C 50.5625 52.742188 51.015625 52.289062 51.578125 52.289062 C 55.484375 52.289062 58.664062 55.480469 58.664062 59.398438 C 58.664062 59.960938 58.210938 60.414062 57.652344 60.414062 Z M 57.652344 60.414062 " fill-opacity="1" fill-rule="nonzero"/><path fill="#000000" d="M 31.328125 54.320312 L 23.230469 54.320312 C 22.671875 54.320312 22.21875 53.863281 22.21875 53.300781 C 22.21875 52.742188 22.671875 52.285156 23.230469 52.285156 L 31.328125 52.289062 C 31.886719 52.289062 32.339844 52.742188 32.339844 53.304688 C 32.339844 53.867188 31.886719 54.320312 31.328125 54.320312 Z M 31.328125 54.320312 " fill-opacity="1" fill-rule="nonzero"/><path fill="#000000" d="M 51.578125 54.320312 L 43.476562 54.320312 C 42.917969 54.320312 42.464844 53.863281 42.464844 53.300781 C 42.464844 52.742188 42.917969 52.285156 43.476562 52.285156 L 51.578125 52.289062 C 52.136719 52.289062 52.589844 52.742188 52.589844 53.304688 C 52.589844 53.867188 52.136719 54.320312 51.578125 54.320312 Z M 51.578125 54.320312 " fill-opacity="1" fill-rule="nonzero"/><path fill="#000000" d="M 17.15625 67.527344 C 16.597656 67.527344 16.140625 67.070312 16.140625 66.507812 L 16.140625 59.402344 C 16.140625 58.839844 16.59375 58.382812 17.152344 58.382812 C 17.710938 58.382812 18.167969 58.839844 18.167969 59.402344 L 18.167969 66.507812 C 18.167969 67.070312 17.714844 67.527344 17.15625 67.527344 Z M 17.15625 67.527344 " fill-opacity="1" fill-rule="nonzero"/><g clip-path="url(#a7d93f048c)"><path fill="#000000" d="M 18.167969 68.542969 C 17.050781 68.542969 16.140625 67.628906 16.140625 66.507812 C 16.140625 65.949219 16.59375 65.492188 17.15625 65.492188 C 17.714844 65.492188 18.167969 65.949219 18.167969 66.507812 L 18.167969 66.511719 C 18.726562 66.511719 19.179688 66.964844 19.179688 67.527344 C 19.179688 68.085938 18.726562 68.542969 18.167969 68.542969 Z M 18.167969 68.542969 " fill-opacity="1" fill-rule="nonzero"/></g><g clip-path="url(#990bb6ce54)"><path fill="#000000" d="M 56.636719 68.542969 C 56.078125 68.542969 55.625 68.085938 55.625 67.527344 C 55.625 66.964844 56.078125 66.507812 56.636719 66.507812 L 56.640625 66.507812 C 56.640625 65.949219 57.09375 65.492188 57.652344 65.492188 C 58.210938 65.492188 58.664062 65.949219 58.664062 66.507812 C 58.664062 67.628906 57.753906 68.542969 56.636719 68.542969 Z M 56.636719 68.542969 " fill-opacity="1" fill-rule="nonzero"/></g><path fill="#000000" d="M 57.652344 67.527344 C 57.089844 67.527344 56.636719 67.070312 56.636719 66.507812 L 56.636719 59.398438 C 56.636719 58.835938 57.089844 58.382812 57.652344 58.382812 C 58.210938 58.382812 58.664062 58.835938 58.664062 59.398438 L 58.664062 66.507812 C 58.664062 67.070312 58.210938 67.527344 57.652344 67.527344 Z M 57.652344 67.527344 " fill-opacity="1" fill-rule="nonzero"/><g clip-path="url(#4c4d7d700b)"><path fill="#000000" d="M 56.636719 68.542969 L 18.167969 68.542969 C 17.605469 68.542969 17.15625 68.085938 17.15625 67.527344 C 17.15625 66.964844 17.605469 66.507812 18.167969 66.507812 L 56.636719 66.507812 C 57.199219 66.507812 57.652344 66.964844 57.652344 67.527344 C 57.652344 68.085938 57.199219 68.542969 56.636719 68.542969 Z M 56.636719 68.542969 " fill-opacity="1" fill-rule="nonzero"/></g><path fill="#000000" d="M 31.328125 54.320312 C 30.769531 54.320312 30.316406 53.867188 30.316406 53.304688 L 30.316406 47.96875 C 30.316406 47.40625 30.769531 46.953125 31.328125 46.953125 C 31.886719 46.953125 32.339844 47.40625 32.339844 47.96875 L 32.339844 53.304688 C 32.339844 53.867188 31.886719 54.320312 31.328125 54.320312 Z M 31.328125 54.320312 " fill-opacity="1" fill-rule="nonzero"/><path fill="#000000" d="M 43.476562 54.320312 C 42.917969 54.320312 42.464844 53.863281 42.464844 53.300781 L 42.464844 47.96875 C 42.464844 47.40625 42.917969 46.953125 43.476562 46.953125 C 44.035156 46.953125 44.488281 47.40625 44.488281 47.96875 L 44.488281 53.300781 C 44.488281 53.863281 44.035156 54.320312 43.476562 54.320312 Z M 43.476562 54.320312 " fill-opacity="1" fill-rule="nonzero"/><path fill="#000000" d="M 37.402344 50.253906 C 28.46875 50.253906 21.203125 42.960938 21.203125 34 C 21.203125 33.4375 21.65625 32.980469 22.214844 32.980469 C 22.777344 32.980469 23.226562 33.4375 23.226562 34 C 23.226562 41.84375 29.585938 48.222656 37.402344 48.222656 C 45.21875 48.222656 51.578125 41.84375 51.578125 34 C 51.578125 33.4375 52.027344 32.980469 52.589844 32.980469 C 53.148438 32.980469 53.601562 33.4375 53.601562 34 C 53.601562 42.960938 46.335938 50.253906 37.402344 50.253906 Z M 37.402344 50.253906 " fill-opacity="1" fill-rule="nonzero"/><path fill="#000000" d="M 22.214844 35.015625 C 21.65625 35.015625 21.203125 34.558594 21.203125 34 L 21.203125 25.871094 C 21.203125 25.308594 21.65625 24.851562 22.214844 24.851562 C 22.777344 24.851562 23.226562 25.308594 23.226562 25.871094 L 23.226562 34 C 23.226562 34.558594 22.777344 35.015625 22.214844 35.015625 Z M 22.214844 35.015625 " fill-opacity="1" fill-rule="nonzero"/><path fill="#000000" d="M 52.589844 35.015625 C 52.027344 35.015625 51.578125 34.558594 51.578125 34 L 51.578125 25.871094 C 51.578125 25.308594 52.027344 24.851562 52.589844 24.851562 C 53.148438 24.851562 53.601562 25.308594 53.601562 25.871094 L 53.601562 34 C 53.601562 34.558594 53.148438 35.015625 52.589844 35.015625 Z M 52.589844 35.015625 " fill-opacity="1" fill-rule="nonzero"/><path fill="#000000" d="M 47.527344 22.820312 C 45.851562 22.820312 44.488281 21.453125 44.488281 19.769531 C 44.488281 19.210938 44.941406 18.753906 45.5 18.753906 C 46.0625 18.753906 46.515625 19.210938 46.515625 19.769531 C 46.515625 20.332031 46.96875 20.789062 47.527344 20.789062 C 48.085938 20.789062 48.539062 21.242188 48.539062 21.804688 C 48.539062 22.363281 48.085938 22.820312 47.527344 22.820312 Z M 47.527344 22.820312 " fill-opacity="1" fill-rule="nonzero"/><path fill="#000000" d="M 49.550781 26.882812 C 47.878906 26.882812 46.515625 25.515625 46.515625 23.835938 C 46.515625 22.15625 47.878906 20.789062 49.550781 20.789062 C 50.113281 20.789062 50.5625 21.242188 50.5625 21.804688 C 50.5625 22.363281 50.113281 22.820312 49.550781 22.820312 C 48.992188 22.820312 48.539062 23.277344 48.539062 23.835938 C 48.539062 24.394531 48.992188 24.851562 49.550781 24.851562 C 50.113281 24.851562 50.5625 25.304688 50.5625 25.867188 C 50.5625 26.429688 50.113281 26.882812 49.550781 26.882812 Z M 49.550781 26.882812 " fill-opacity="1" fill-rule="nonzero"/><path fill="#000000" d="M 49.550781 22.820312 L 47.527344 22.820312 C 46.96875 22.820312 46.515625 22.363281 46.515625 21.804688 C 46.515625 21.242188 46.96875 20.789062 47.527344 20.789062 L 49.550781 20.789062 C 50.113281 20.789062 50.5625 21.242188 50.5625 21.804688 C 50.5625 22.363281 50.113281 22.820312 49.550781 22.820312 Z M 49.550781 22.820312 " fill-opacity="1" fill-rule="nonzero"/><path fill="#000000" d="M 52.589844 26.882812 L 49.550781 26.882812 C 48.992188 26.882812 48.539062 26.429688 48.539062 25.867188 C 48.539062 25.304688 48.992188 24.851562 49.550781 24.851562 L 52.589844 24.851562 C 53.148438 24.851562 53.601562 25.304688 53.601562 25.867188 C 53.601562 26.429688 53.148438 26.882812 52.589844 26.882812 Z M 52.589844 26.882812 " fill-opacity="1" fill-rule="nonzero"/><path fill="#000000" d="M 27.277344 22.820312 C 26.71875 22.820312 26.265625 22.363281 26.265625 21.804688 C 26.265625 21.242188 26.71875 20.789062 27.277344 20.789062 C 27.839844 20.789062 28.292969 20.332031 28.292969 19.769531 C 28.292969 19.210938 28.742188 18.753906 29.304688 18.753906 C 29.863281 18.753906 30.316406 19.210938 30.316406 19.769531 C 30.316406 21.453125 28.953125 22.820312 27.277344 22.820312 Z M 27.277344 22.820312 " fill-opacity="1" fill-rule="nonzero"/><path fill="#000000" d="M 25.253906 26.882812 C 24.695312 26.882812 24.242188 26.429688 24.242188 25.867188 C 24.242188 25.304688 24.695312 24.851562 25.253906 24.851562 C 25.8125 24.851562 26.265625 24.394531 26.265625 23.835938 C 26.265625 23.277344 25.8125 22.820312 25.253906 22.820312 C 24.695312 22.820312 24.242188 22.363281 24.242188 21.804688 C 24.242188 21.242188 24.695312 20.789062 25.253906 20.789062 C 26.929688 20.789062 28.292969 22.15625 28.292969 23.835938 C 28.292969 25.515625 26.929688 26.882812 25.253906 26.882812 Z M 25.253906 26.882812 " fill-opacity="1" fill-rule="nonzero"/><path fill="#000000" d="M 27.277344 22.820312 L 25.253906 22.820312 C 24.695312 22.820312 24.242188 22.363281 24.242188 21.804688 C 24.242188 21.242188 24.695312 20.789062 25.253906 20.789062 L 27.277344 20.789062 C 27.839844 20.789062 28.292969 21.242188 28.292969 21.804688 C 28.292969 22.363281 27.839844 22.820312 27.277344 22.820312 Z M 27.277344 22.820312 " fill-opacity="1" fill-rule="nonzero"/><path fill="#000000" d="M 25.253906 26.882812 L 22.21875 26.882812 C 21.65625 26.882812 21.203125 26.429688 21.203125 25.867188 C 21.203125 25.304688 21.65625 24.851562 22.21875 24.851562 L 25.253906 24.851562 C 25.8125 24.851562 26.265625 25.304688 26.265625 25.867188 C 26.265625 26.429688 25.8125 26.882812 25.253906 26.882812 Z M 25.253906 26.882812 " fill-opacity="1" fill-rule="nonzero"/><path fill="#000000" d="M 34.363281 20.789062 L 29.304688 20.789062 C 28.742188 20.789062 28.292969 20.332031 28.292969 19.769531 C 28.292969 19.210938 28.742188 18.753906 29.304688 18.753906 L 34.363281 18.753906 C 34.925781 18.753906 35.378906 19.210938 35.378906 19.769531 C 35.378906 20.332031 34.925781 20.789062 34.363281 20.789062 Z M 34.363281 20.789062 " fill-opacity="1" fill-rule="nonzero"/><g clip-path="url(#403342470d)"><path fill="#000000" d="M 56.613281 26.882812 C 56.078125 26.882812 55.628906 26.460938 55.601562 25.921875 C 55.097656 16.203125 47.105469 8.59375 37.402344 8.59375 C 27.738281 8.59375 19.746094 16.171875 19.207031 25.847656 C 19.175781 26.40625 18.6875 26.828125 18.140625 26.804688 C 17.578125 26.773438 17.152344 26.292969 17.183594 25.734375 C 17.785156 14.984375 26.664062 6.5625 37.402344 6.5625 C 48.183594 6.5625 57.066406 15.019531 57.625 25.8125 C 57.652344 26.375 57.222656 26.851562 56.664062 26.882812 C 56.648438 26.882812 56.628906 26.882812 56.613281 26.882812 Z M 56.613281 26.882812 " fill-opacity="1" fill-rule="nonzero"/></g><path fill="#000000" d="M 34.363281 20.789062 C 33.804688 20.789062 33.351562 20.332031 33.351562 19.769531 C 33.351562 19.210938 33.804688 18.753906 34.363281 18.753906 C 35.480469 18.753906 36.390625 17.84375 36.390625 16.722656 C 36.390625 16.164062 36.84375 15.707031 37.402344 15.707031 C 37.960938 15.707031 38.414062 16.164062 38.414062 16.722656 C 38.414062 18.964844 36.597656 20.789062 34.363281 20.789062 Z M 34.363281 20.789062 " fill-opacity="1" fill-rule="nonzero"/><path fill="#000000" d="M 45.5 20.789062 L 40.441406 20.789062 C 39.878906 20.789062 39.429688 20.332031 39.429688 19.769531 C 39.429688 19.210938 39.878906 18.753906 40.441406 18.753906 L 45.5 18.753906 C 46.0625 18.753906 46.515625 19.210938 46.515625 19.769531 C 46.515625 20.332031 46.0625 20.789062 45.5 20.789062 Z M 45.5 20.789062 " fill-opacity="1" fill-rule="nonzero"/><path fill="#000000" d="M 40.441406 20.789062 C 38.207031 20.789062 36.390625 18.964844 36.390625 16.722656 C 36.390625 16.164062 36.84375 15.707031 37.402344 15.707031 C 37.964844 15.707031 38.414062 16.164062 38.414062 16.722656 C 38.414062 17.84375 39.324219 18.753906 40.441406 18.753906 C 41 18.753906 41.453125 19.210938 41.453125 19.769531 C 41.453125 20.332031 41 20.789062 40.441406 20.789062 Z M 40.441406 20.789062 " fill-opacity="1" fill-rule="nonzero"/><g clip-path="url(#c844329cee)"><path fill="#000000" d="M 20.191406 68.542969 C 19.808594 68.542969 19.4375 68.320312 19.269531 67.945312 C 19.039062 67.433594 19.265625 66.832031 19.773438 66.601562 L 51.160156 52.355469 C 51.667969 52.125 52.269531 52.351562 52.5 52.863281 C 52.730469 53.375 52.503906 53.976562 51.992188 54.207031 L 20.609375 68.453125 C 20.472656 68.511719 20.332031 68.542969 20.191406 68.542969 Z M 20.191406 68.542969 " fill-opacity="1" fill-rule="nonzero"/></g><path fill="#000000" d="M 37.40625 60.734375 C 37.265625 60.734375 37.125 60.703125 36.992188 60.640625 L 22.8125 54.207031 C 22.304688 53.976562 22.078125 53.375 22.308594 52.863281 C 22.539062 52.351562 23.136719 52.125 23.648438 52.355469 L 37.824219 58.792969 C 38.332031 59.023438 38.5625 59.625 38.328125 60.136719 C 38.160156 60.511719 37.792969 60.734375 37.40625 60.734375 Z M 37.40625 60.734375 " fill-opacity="1" fill-rule="nonzero"/><path fill="#000000" d="M 56.636719 57.042969 C 56.078125 57.042969 55.625 56.589844 55.625 56.027344 L 55.625 29.929688 C 55.625 29.371094 56.078125 28.914062 56.636719 28.914062 C 57.199219 28.914062 57.652344 29.371094 57.652344 29.929688 L 57.652344 56.027344 C 57.652344 56.589844 57.199219 57.042969 56.636719 57.042969 Z M 56.636719 57.042969 " fill-opacity="1" fill-rule="nonzero"/><g clip-path="url(#b003570c5e)"><path fill="#000000" d="M 52.589844 26.882812 C 52.03125 26.882812 51.578125 26.429688 51.578125 25.867188 C 51.578125 25.308594 52.027344 24.851562 52.589844 24.851562 L 64.738281 24.851562 C 65.296875 24.851562 65.75 25.304688 65.75 25.867188 C 65.75 26.429688 65.296875 26.882812 64.738281 26.882812 Z M 52.589844 26.882812 " fill-opacity="1" fill-rule="nonzero"/></g><g clip-path="url(#0410de5616)"><path fill="#000000" d="M 52.589844 32.980469 C 52.21875 32.980469 51.859375 32.773438 51.683594 32.417969 C 51.433594 31.914062 51.636719 31.304688 52.136719 31.054688 L 64.285156 24.957031 C 64.785156 24.707031 65.390625 24.910156 65.644531 25.410156 C 65.894531 25.914062 65.691406 26.523438 65.191406 26.777344 L 53.042969 32.871094 C 52.898438 32.945312 52.742188 32.980469 52.589844 32.980469 Z M 52.589844 32.980469 " fill-opacity="1" fill-rule="nonzero"/></g><path fill="#000000" d="M 18.167969 57.042969 C 17.605469 57.042969 17.152344 56.589844 17.152344 56.027344 L 17.152344 29.929688 C 17.152344 29.371094 17.605469 28.914062 18.167969 28.914062 C 18.726562 28.914062 19.179688 29.371094 19.179688 29.929688 L 19.179688 56.027344 C 19.179688 56.589844 18.726562 57.042969 18.167969 57.042969 Z M 18.167969 57.042969 " fill-opacity="1" fill-rule="nonzero"/><path fill="#000000" d="M 22.214844 26.882812 L 10.066406 26.882812 C 9.507812 26.882812 9.054688 26.429688 9.054688 25.867188 C 9.054688 25.304688 9.507812 24.851562 10.066406 24.851562 L 22.214844 24.851562 C 22.777344 24.851562 23.226562 25.308594 23.226562 25.867188 C 23.226562 26.429688 22.773438 26.882812 22.214844 26.882812 Z M 22.214844 26.882812 " fill-opacity="1" fill-rule="nonzero"/><path fill="#000000" d="M 22.214844 32.980469 C 22.0625 32.980469 21.90625 32.945312 21.761719 32.871094 L 9.613281 26.777344 C 9.113281 26.527344 8.910156 25.914062 9.160156 25.414062 C 9.414062 24.910156 10.019531 24.707031 10.519531 24.957031 L 22.667969 31.054688 C 23.167969 31.304688 23.371094 31.917969 23.121094 32.417969 C 22.945312 32.773438 22.585938 32.980469 22.214844 32.980469 Z M 22.214844 32.980469 " fill-opacity="1" fill-rule="nonzero"/><path fill="#000000" d="M 37.402344 22.820312 C 36.84375 22.820312 36.390625 22.363281 36.390625 21.804688 L 36.390625 16.722656 C 36.390625 16.164062 36.84375 15.707031 37.402344 15.707031 C 37.960938 15.707031 38.414062 16.164062 38.414062 16.722656 L 38.414062 21.804688 C 38.414062 22.363281 37.960938 22.820312 37.402344 22.820312 Z M 37.402344 22.820312 " fill-opacity="1" fill-rule="nonzero"/><path fill="#000000" d="M 26.265625 16.722656 C 24.59375 16.722656 23.226562 15.355469 23.226562 13.675781 C 23.226562 13.113281 23.679688 12.660156 24.242188 12.660156 C 24.800781 12.660156 25.253906 13.113281 25.253906 13.675781 C 25.253906 14.234375 25.707031 14.691406 26.265625 14.691406 C 26.828125 14.691406 27.277344 15.148438 27.277344 15.707031 C 27.277344 16.269531 26.828125 16.722656 26.265625 16.722656 Z M 26.265625 16.722656 " fill-opacity="1" fill-rule="nonzero"/><path fill="#000000" d="M 37.402344 16.722656 L 26.265625 16.722656 C 25.707031 16.722656 25.253906 16.269531 25.253906 15.707031 C 25.253906 15.148438 25.707031 14.691406 26.265625 14.691406 L 37.402344 14.691406 C 37.960938 14.691406 38.414062 15.148438 38.414062 15.707031 C 38.414062 16.269531 37.960938 16.722656 37.402344 16.722656 Z M 37.402344 16.722656 " fill-opacity="1" fill-rule="nonzero"/><path fill="#000000" d="M 24.242188 14.691406 C 23.679688 14.691406 23.226562 14.234375 23.226562 13.675781 L 23.226562 12.804688 C 23.226562 12.246094 23.679688 11.789062 24.242188 11.789062 C 24.800781 11.789062 25.253906 12.246094 25.253906 12.804688 L 25.253906 13.675781 C 25.253906 14.234375 24.800781 14.691406 24.242188 14.691406 Z M 24.242188 14.691406 " fill-opacity="1" fill-rule="nonzero"/><path fill="#000000" d="M 48.539062 16.722656 C 47.976562 16.722656 47.527344 16.269531 47.527344 15.707031 C 47.527344 15.148438 47.976562 14.691406 48.539062 14.691406 C 49.097656 14.691406 49.550781 14.234375 49.550781 13.675781 C 49.550781 13.113281 50.003906 12.660156 50.5625 12.660156 C 51.125 12.660156 51.578125 13.113281 51.578125 13.675781 C 51.578125 15.355469 50.210938 16.722656 48.539062 16.722656 Z M 48.539062 16.722656 " fill-opacity="1" fill-rule="nonzero"/><path fill="#000000" d="M 48.539062 16.722656 L 37.402344 16.722656 C 36.84375 16.722656 36.390625 16.269531 36.390625 15.707031 C 36.390625 15.148438 36.84375 14.691406 37.402344 14.691406 L 48.539062 14.691406 C 49.097656 14.691406 49.550781 15.148438 49.550781 15.707031 C 49.550781 16.269531 49.097656 16.722656 48.539062 16.722656 Z M 48.539062 16.722656 " fill-opacity="1" fill-rule="nonzero"/><path fill="#000000" d="M 50.5625 14.691406 C 50.003906 14.691406 49.550781 14.234375 49.550781 13.675781 L 49.550781 12.804688 C 49.550781 12.246094 50.003906 11.789062 50.5625 11.789062 C 51.125 11.789062 51.578125 12.246094 51.578125 12.804688 L 51.578125 13.675781 C 51.578125 14.234375 51.125 14.691406 50.5625 14.691406 Z M 50.5625 14.691406 " fill-opacity="1" fill-rule="nonzero"/><path fill="#000000" d="M 39.429688 25.867188 C 39.101562 25.867188 38.777344 25.710938 38.585938 25.417969 L 36.558594 22.367188 C 36.25 21.902344 36.375 21.269531 36.839844 20.957031 C 37.308594 20.644531 37.933594 20.773438 38.246094 21.238281 L 40.269531 24.289062 C 40.582031 24.753906 40.453125 25.386719 39.988281 25.699219 C 39.816406 25.8125 39.621094 25.867188 39.429688 25.867188 Z M 39.429688 25.867188 " fill-opacity="1" fill-rule="nonzero"/><path fill="#000000" d="M 37.402344 28.914062 C 37.207031 28.914062 37.011719 28.859375 36.839844 28.746094 C 36.375 28.433594 36.25 27.804688 36.558594 27.335938 L 38.585938 24.289062 C 38.894531 23.820312 39.523438 23.695312 39.988281 24.007812 C 40.453125 24.320312 40.582031 24.949219 40.269531 25.417969 L 38.246094 28.464844 C 38.050781 28.757812 37.726562 28.914062 37.402344 28.914062 Z M 37.402344 28.914062 " fill-opacity="1" fill-rule="nonzero"/><path fill="#000000" d="M 37.402344 28.914062 C 37.078125 28.914062 36.753906 28.757812 36.558594 28.464844 L 34.535156 25.414062 C 34.222656 24.949219 34.351562 24.316406 34.816406 24.007812 C 35.28125 23.691406 35.910156 23.820312 36.21875 24.289062 L 38.246094 27.335938 C 38.554688 27.800781 38.429688 28.433594 37.964844 28.746094 C 37.792969 28.859375 37.597656 28.914062 37.402344 28.914062 Z M 37.402344 28.914062 " fill-opacity="1" fill-rule="nonzero"/><path fill="#000000" d="M 35.375 25.867188 C 35.183594 25.867188 34.988281 25.8125 34.816406 25.695312 C 34.351562 25.386719 34.222656 24.753906 34.535156 24.289062 L 36.558594 21.238281 C 36.867188 20.773438 37.496094 20.644531 37.964844 20.957031 C 38.429688 21.269531 38.554688 21.898438 38.246094 22.367188 L 36.21875 25.414062 C 36.027344 25.707031 35.703125 25.867188 35.375 25.867188 Z M 35.375 25.867188 " fill-opacity="1" fill-rule="nonzero"/></svg>