<svg xmlns="http://www.w3.org/2000/svg" xmlns:xlink="http://www.w3.org/1999/xlink" width="100" zoomAndPan="magnify" viewBox="0 0 75 74.999997" height="100" preserveAspectRatio="xMidYMid meet" version="1.0"><defs><clipPath id="2befa0c3b9"><path d="M 14.355469 41 L 29 41 L 29 66.824219 L 14.355469 66.824219 Z M 14.355469 41 " clip-rule="nonzero"/></clipPath><clipPath id="a82c68f581"><path d="M 27 49 L 39 49 L 39 66.824219 L 27 66.824219 Z M 27 49 " clip-rule="nonzero"/></clipPath><clipPath id="fe2f9e2101"><path d="M 36 49 L 49 49 L 49 66.824219 L 36 66.824219 Z M 36 49 " clip-rule="nonzero"/></clipPath><clipPath id="f5dbb2ffb6"><path d="M 46 41 L 60.855469 41 L 60.855469 66.824219 L 46 66.824219 Z M 46 41 " clip-rule="nonzero"/></clipPath><clipPath id="e35947318a"><path d="M 14.355469 9 L 29 9 L 29 36 L 14.355469 36 Z M 14.355469 9 " clip-rule="nonzero"/></clipPath><clipPath id="2400bda589"><path d="M 46 9 L 60.855469 9 L 60.855469 36 L 46 36 Z M 46 9 " clip-rule="nonzero"/></clipPath></defs><g clip-path="url(#2befa0c3b9)"><path fill="#000000" d="M 22.921875 66.824219 C 17.917969 66.824219 14.804688 64.496094 14.691406 64.382812 C 14.472656 64.160156 14.359375 63.9375 14.359375 63.605469 C 14.472656 61.941406 16.140625 56.722656 18.140625 51.726562 C 19.140625 48.953125 20.253906 46.734375 21.03125 45.066406 C 22.480469 42.292969 23.257812 41.738281 23.925781 41.738281 C 24.480469 41.738281 25.148438 41.960938 25.371094 43.402344 L 28.597656 65.160156 C 28.597656 65.492188 28.375 65.9375 28.039062 66.046875 C 26.148438 66.601562 24.480469 66.824219 22.921875 66.824219 Z M 16.027344 63.382812 C 16.472656 63.605469 17.472656 64.273438 18.917969 64.605469 C 21.476562 65.382812 24.148438 65.492188 26.925781 64.714844 L 23.8125 43.625 C 23.8125 43.625 23.8125 43.625 23.8125 43.515625 C 23.144531 44.402344 21.699219 46.84375 19.476562 52.726562 C 17.808594 56.945312 16.363281 61.496094 16.027344 63.382812 Z M 16.027344 63.382812 " fill-opacity="1" fill-rule="evenodd"/></g><g clip-path="url(#a82c68f581)"><path fill="#000000" d="M 33.601562 66.046875 L 27.816406 66.046875 C 27.371094 66.046875 27.039062 65.714844 27.039062 65.269531 L 27.039062 54.613281 C 27.039062 52.0625 29.261719 49.839844 31.820312 49.839844 L 33.601562 49.839844 C 36.160156 49.839844 38.382812 52.0625 38.382812 54.613281 L 38.382812 61.273438 C 38.382812 63.9375 36.269531 66.046875 33.601562 66.046875 Z M 28.597656 64.496094 L 33.601562 64.496094 C 35.378906 64.496094 36.828125 63.050781 36.828125 61.273438 L 36.828125 54.613281 C 36.828125 52.839844 35.378906 51.394531 33.601562 51.394531 L 31.820312 51.394531 C 30.152344 51.394531 28.597656 52.949219 28.597656 54.613281 Z M 28.597656 64.496094 " fill-opacity="1" fill-rule="evenodd"/></g><g clip-path="url(#fe2f9e2101)"><path fill="#000000" d="M 47.390625 66.046875 L 41.609375 66.046875 C 38.9375 66.046875 36.828125 63.9375 36.828125 61.273438 L 36.828125 54.613281 C 36.828125 52.0625 39.050781 49.839844 41.609375 49.839844 L 43.386719 49.839844 C 45.945312 49.839844 48.171875 52.0625 48.171875 54.613281 L 48.171875 65.269531 C 48.171875 65.714844 47.835938 66.046875 47.390625 66.046875 Z M 41.609375 51.394531 C 39.828125 51.394531 38.382812 52.839844 38.382812 54.613281 L 38.382812 61.273438 C 38.382812 63.050781 39.828125 64.496094 41.609375 64.496094 L 46.613281 64.496094 L 46.613281 54.613281 C 46.613281 52.839844 45.167969 51.394531 43.386719 51.394531 Z M 41.609375 51.394531 " fill-opacity="1" fill-rule="evenodd"/></g><g clip-path="url(#f5dbb2ffb6)"><path fill="#000000" d="M 52.285156 66.824219 C 50.730469 66.824219 49.058594 66.601562 47.167969 66.046875 C 46.835938 65.9375 46.613281 65.492188 46.613281 65.160156 L 49.839844 43.402344 C 50.0625 41.960938 50.730469 41.738281 51.171875 41.738281 C 51.953125 41.738281 52.730469 42.292969 54.175781 45.066406 C 54.957031 46.734375 55.957031 48.953125 57.070312 51.726562 C 58.960938 56.722656 60.628906 61.941406 60.851562 63.605469 C 60.851562 63.9375 60.738281 64.160156 60.515625 64.273438 C 60.40625 64.496094 57.402344 66.824219 52.285156 66.824219 Z M 48.28125 64.714844 C 54.066406 66.160156 58.070312 64.050781 59.179688 63.382812 C 58.847656 61.496094 57.402344 56.945312 55.734375 52.726562 C 53.507812 46.84375 52.0625 44.402344 51.394531 43.515625 C 51.394531 43.515625 51.394531 43.625 51.394531 43.625 Z M 48.28125 64.714844 " fill-opacity="1" fill-rule="evenodd"/></g><g clip-path="url(#e35947318a)"><path fill="#000000" d="M 24.035156 35.078125 C 23.257812 35.078125 22.480469 34.523438 21.03125 31.746094 C 20.253906 30.082031 19.253906 27.863281 18.140625 25.085938 C 16.140625 20.09375 14.472656 14.875 14.359375 13.210938 C 14.359375 12.875 14.472656 12.65625 14.691406 12.433594 C 14.914062 12.320312 20.03125 8.324219 28.039062 10.765625 C 28.375 10.878906 28.597656 11.324219 28.597656 11.65625 L 25.371094 33.414062 C 25.148438 34.746094 24.480469 35.078125 24.035156 35.078125 Z M 16.027344 13.429688 C 16.363281 15.320312 17.808594 19.871094 19.476562 24.089844 C 21.699219 29.859375 23.144531 32.414062 23.8125 33.300781 C 23.8125 33.191406 23.8125 33.191406 23.8125 33.191406 L 26.925781 12.097656 C 21.253906 10.546875 17.140625 12.765625 16.027344 13.429688 Z M 16.027344 13.429688 " fill-opacity="1" fill-rule="evenodd"/></g><path fill="#000000" d="M 33.601562 26.863281 L 31.820312 26.863281 C 29.261719 26.863281 27.039062 24.753906 27.039062 22.199219 L 27.039062 11.542969 C 27.039062 11.101562 27.371094 10.765625 27.816406 10.765625 L 33.601562 10.765625 C 36.269531 10.765625 38.382812 12.875 38.382812 15.539062 L 38.382812 22.199219 C 38.382812 24.753906 36.269531 26.863281 33.601562 26.863281 Z M 28.597656 12.320312 L 28.597656 22.199219 C 28.597656 23.867188 30.152344 25.308594 31.820312 25.308594 L 33.601562 25.308594 C 35.378906 25.308594 36.828125 23.867188 36.828125 22.199219 L 36.828125 15.539062 C 36.828125 13.765625 35.378906 12.320312 33.601562 12.320312 Z M 28.597656 12.320312 " fill-opacity="1" fill-rule="evenodd"/><path fill="#000000" d="M 43.386719 26.863281 L 41.609375 26.863281 C 38.9375 26.863281 36.828125 24.753906 36.828125 22.199219 L 36.828125 15.539062 C 36.828125 12.875 38.9375 10.765625 41.609375 10.765625 L 47.390625 10.765625 C 47.835938 10.765625 48.171875 11.101562 48.171875 11.542969 L 48.171875 22.199219 C 48.171875 24.753906 46.058594 26.863281 43.386719 26.863281 Z M 41.609375 12.320312 C 39.828125 12.320312 38.382812 13.765625 38.382812 15.539062 L 38.382812 22.199219 C 38.382812 23.867188 39.828125 25.308594 41.609375 25.308594 L 43.386719 25.308594 C 45.167969 25.308594 46.613281 23.867188 46.613281 22.199219 L 46.613281 12.320312 Z M 41.609375 12.320312 " fill-opacity="1" fill-rule="evenodd"/><g clip-path="url(#2400bda589)"><path fill="#000000" d="M 51.171875 35.078125 C 50.730469 35.078125 50.0625 34.746094 49.839844 33.414062 L 46.613281 11.65625 C 46.613281 11.324219 46.835938 10.878906 47.167969 10.765625 C 55.289062 8.324219 60.292969 12.320312 60.515625 12.433594 C 60.738281 12.65625 60.851562 12.875 60.851562 13.210938 C 60.738281 14.761719 59.070312 20.09375 57.070312 25.085938 C 55.957031 27.863281 54.957031 30.082031 54.175781 31.746094 C 52.730469 34.523438 51.953125 35.078125 51.285156 35.078125 C 51.171875 35.078125 51.171875 35.078125 51.171875 35.078125 Z M 48.28125 12.097656 L 51.394531 33.191406 C 51.394531 33.191406 51.394531 33.191406 51.394531 33.300781 C 52.0625 32.414062 53.507812 29.859375 55.734375 24.089844 C 57.402344 19.871094 58.847656 15.320312 59.179688 13.429688 C 58.738281 13.097656 57.734375 12.542969 56.402344 12.210938 C 53.84375 11.433594 51.0625 11.324219 48.28125 12.097656 Z M 48.28125 12.097656 " fill-opacity="1" fill-rule="evenodd"/></g></svg>