<svg xmlns="http://www.w3.org/2000/svg" xmlns:xlink="http://www.w3.org/1999/xlink" width="100" zoomAndPan="magnify" viewBox="0 0 75 74.999997" height="100" preserveAspectRatio="xMidYMid meet" version="1.0"><defs><clipPath id="4d8d3b0c1e"><path d="M 56 65 L 70 65 L 70 70.675781 L 56 70.675781 Z M 56 65 " clip-rule="nonzero"/></clipPath><clipPath id="edbdaf2aea"><path d="M 4.796875 65 L 19 65 L 19 70.675781 L 4.796875 70.675781 Z M 4.796875 65 " clip-rule="nonzero"/></clipPath><clipPath id="b405cf1877"><path d="M 36 4.675781 L 39 4.675781 L 39 13 L 36 13 Z M 36 4.675781 " clip-rule="nonzero"/></clipPath></defs><rect x="-7.5" width="90" fill="#ffffff" y="-7.5" height="89.999996" fill-opacity="1"/><rect x="-7.5" width="90" fill="#ffffff" y="-7.5" height="89.999996" fill-opacity="1"/><rect x="-7.5" width="90" fill="#ffffff" y="-7.5" height="89.999996" fill-opacity="1"/><path fill="#000000" d="M 49.65625 46.457031 C 48.484375 45.761719 47.5 44.855469 46.699219 43.746094 C 45.898438 42.636719 45.351562 41.414062 45.054688 40.074219 L 40.191406 18.453125 C 40.15625 18.300781 40.152344 18.148438 40.175781 17.996094 C 40.199219 17.84375 40.25 17.703125 40.328125 17.570312 C 40.40625 17.4375 40.507812 17.324219 40.628906 17.226562 C 40.75 17.132812 40.882812 17.066406 41.03125 17.023438 L 55.636719 12.882812 C 55.785156 12.839844 55.933594 12.828125 56.089844 12.84375 C 56.242188 12.859375 56.386719 12.90625 56.519531 12.976562 C 56.65625 13.050781 56.773438 13.144531 56.875 13.261719 C 56.976562 13.382812 57.050781 13.511719 57.097656 13.660156 L 64.132812 34.667969 C 64.457031 35.636719 64.632812 36.632812 64.652344 37.652344 C 64.675781 38.675781 64.546875 39.675781 64.265625 40.660156 C 63.980469 41.640625 63.558594 42.558594 62.996094 43.410156 C 62.4375 44.261719 61.761719 45.007812 60.972656 45.648438 C 60.183594 46.292969 59.316406 46.800781 58.371094 47.175781 C 57.429688 47.550781 56.449219 47.773438 55.4375 47.84375 C 54.425781 47.917969 53.429688 47.835938 52.441406 47.597656 C 51.453125 47.363281 50.527344 46.980469 49.65625 46.457031 Z M 42.777344 19.039062 L 47.394531 39.542969 C 47.507812 40.042969 47.671875 40.523438 47.882812 40.992188 C 48.09375 41.457031 48.351562 41.898438 48.648438 42.3125 C 48.949219 42.726562 49.289062 43.109375 49.667969 43.453125 C 50.042969 43.796875 50.449219 44.101562 50.890625 44.363281 C 51.328125 44.625 51.785156 44.839844 52.269531 45.007812 C 52.75 45.175781 53.242188 45.292969 53.746094 45.359375 C 54.253906 45.425781 54.757812 45.441406 55.265625 45.402344 C 55.773438 45.367188 56.273438 45.277344 56.765625 45.140625 C 57.253906 45 57.726562 44.8125 58.179688 44.578125 C 58.628906 44.34375 59.054688 44.0625 59.449219 43.742188 C 59.847656 43.417969 60.207031 43.058594 60.53125 42.664062 C 60.855469 42.269531 61.136719 41.84375 61.375 41.390625 C 61.613281 40.9375 61.804688 40.464844 61.949219 39.972656 C 62.089844 39.480469 62.183594 38.976562 62.226562 38.464844 C 62.269531 37.953125 62.257812 37.445312 62.199219 36.933594 C 62.136719 36.425781 62.027344 35.925781 61.863281 35.441406 L 55.195312 15.519531 Z M 42.777344 19.039062 " fill-opacity="1" fill-rule="nonzero"/><path fill="#000000" d="M 63.113281 69.097656 C 63.300781 69.097656 63.480469 69.054688 63.648438 68.96875 C 63.816406 68.886719 63.957031 68.769531 64.070312 68.617188 C 64.183594 68.46875 64.257812 68.296875 64.292969 68.113281 C 64.324219 67.925781 64.316406 67.742188 64.265625 67.5625 L 58.246094 46 C 58.199219 45.855469 58.125 45.722656 58.023438 45.601562 C 57.925781 45.484375 57.808594 45.386719 57.671875 45.316406 C 57.535156 45.242188 57.390625 45.199219 57.238281 45.183594 C 57.085938 45.164062 56.933594 45.179688 56.785156 45.21875 C 56.636719 45.261719 56.503906 45.332031 56.378906 45.425781 C 56.257812 45.519531 56.15625 45.632812 56.078125 45.765625 C 56 45.902344 55.949219 46.042969 55.925781 46.199219 C 55.902344 46.351562 55.90625 46.503906 55.941406 46.652344 L 61.960938 68.214844 C 62.035156 68.476562 62.175781 68.6875 62.390625 68.851562 C 62.605469 69.011719 62.847656 69.09375 63.113281 69.097656 Z M 63.113281 69.097656 " fill-opacity="1" fill-rule="nonzero"/><g clip-path="url(#4d8d3b0c1e)"><path fill="#000000" d="M 57.578125 70.664062 C 57.6875 70.664062 57.796875 70.648438 57.902344 70.617188 L 68.960938 67.480469 C 69.121094 67.445312 69.269531 67.378906 69.402344 67.28125 C 69.535156 67.183594 69.640625 67.0625 69.726562 66.921875 C 69.808594 66.777344 69.859375 66.625 69.882812 66.460938 C 69.902344 66.296875 69.890625 66.136719 69.847656 65.976562 C 69.804688 65.820312 69.730469 65.675781 69.628906 65.546875 C 69.523438 65.417969 69.398438 65.3125 69.253906 65.238281 C 69.109375 65.160156 68.957031 65.113281 68.792969 65.101562 C 68.628906 65.085938 68.46875 65.105469 68.3125 65.160156 L 57.253906 68.292969 C 56.964844 68.375 56.738281 68.542969 56.574219 68.792969 C 56.410156 69.046875 56.347656 69.324219 56.390625 69.621094 C 56.429688 69.921875 56.5625 70.167969 56.789062 70.367188 C 57.015625 70.566406 57.277344 70.664062 57.578125 70.664062 Z M 57.578125 70.664062 " fill-opacity="1" fill-rule="nonzero"/></g><path fill="#000000" d="M 60.964844 30.191406 C 61.234375 30.191406 61.480469 30.109375 61.695312 29.945312 C 61.910156 29.777344 62.054688 29.5625 62.125 29.300781 C 62.199219 29.035156 62.179688 28.777344 62.078125 28.523438 C 61.976562 28.269531 61.804688 28.074219 61.570312 27.9375 C 58.945312 26.507812 56.140625 25.746094 53.15625 25.65625 C 52.074219 25.65625 51.101562 25.65625 50.207031 25.679688 C 47.625 25.726562 45.757812 25.765625 43.550781 24.925781 C 43.40625 24.878906 43.257812 24.863281 43.105469 24.875 C 42.953125 24.886719 42.808594 24.929688 42.671875 24.996094 C 42.535156 25.0625 42.417969 25.152344 42.316406 25.269531 C 42.210938 25.382812 42.132812 25.511719 42.082031 25.652344 C 42.027344 25.796875 42.003906 25.945312 42.003906 26.101562 C 42.007812 26.253906 42.039062 26.402344 42.097656 26.542969 C 42.15625 26.683594 42.238281 26.808594 42.34375 26.917969 C 42.453125 27.03125 42.574219 27.117188 42.714844 27.179688 C 45.347656 28.179688 47.515625 28.140625 50.261719 28.085938 C 51.132812 28.085938 52.082031 28.050781 53.136719 28.066406 C 57.066406 28.117188 60.34375 30 60.378906 30.019531 C 60.558594 30.128906 60.753906 30.1875 60.964844 30.191406 Z M 60.964844 30.191406 " fill-opacity="1" fill-rule="nonzero"/><path fill="#000000" d="M 17.445312 47.488281 C 16.800781 47.304688 16.175781 47.054688 15.578125 46.746094 C 14.980469 46.433594 14.421875 46.066406 13.898438 45.636719 C 13.375 45.210938 12.898438 44.738281 12.472656 44.214844 C 12.046875 43.691406 11.675781 43.128906 11.363281 42.527344 C 11.046875 41.929688 10.796875 41.304688 10.609375 40.652344 C 10.421875 40.003906 10.300781 39.339844 10.25 38.664062 C 10.195312 37.988281 10.207031 37.3125 10.292969 36.640625 C 10.375 35.96875 10.523438 35.3125 10.738281 34.667969 L 17.765625 13.660156 C 17.816406 13.511719 17.890625 13.382812 17.988281 13.261719 C 18.089844 13.144531 18.207031 13.050781 18.34375 12.980469 C 18.480469 12.90625 18.621094 12.863281 18.777344 12.84375 C 18.929688 12.828125 19.078125 12.839844 19.226562 12.882812 L 33.832031 17.023438 C 33.980469 17.066406 34.113281 17.132812 34.234375 17.226562 C 34.355469 17.324219 34.457031 17.4375 34.535156 17.570312 C 34.613281 17.703125 34.664062 17.84375 34.6875 17.996094 C 34.710938 18.148438 34.707031 18.300781 34.671875 18.453125 L 29.808594 40.074219 C 29.660156 40.734375 29.449219 41.375 29.171875 41.996094 C 28.894531 42.613281 28.558594 43.199219 28.164062 43.746094 C 27.769531 44.296875 27.320312 44.800781 26.824219 45.257812 C 26.328125 45.714844 25.789062 46.117188 25.210938 46.464844 C 24.632812 46.8125 24.023438 47.097656 23.386719 47.320312 C 22.75 47.542969 22.101562 47.695312 21.433594 47.785156 C 20.765625 47.871094 20.09375 47.890625 19.421875 47.839844 C 18.75 47.792969 18.089844 47.671875 17.445312 47.488281 Z M 19.683594 15.519531 L 13 35.441406 C 12.839844 35.925781 12.730469 36.425781 12.667969 36.933594 C 12.609375 37.445312 12.597656 37.953125 12.640625 38.464844 C 12.683594 38.976562 12.777344 39.480469 12.917969 39.972656 C 13.0625 40.464844 13.253906 40.9375 13.492188 41.390625 C 13.730469 41.84375 14.011719 42.269531 14.335938 42.664062 C 14.660156 43.058594 15.019531 43.417969 15.414062 43.742188 C 15.8125 44.0625 16.234375 44.34375 16.6875 44.578125 C 17.140625 44.8125 17.613281 45 18.101562 45.140625 C 18.59375 45.277344 19.09375 45.367188 19.601562 45.402344 C 20.109375 45.441406 20.613281 45.425781 21.121094 45.359375 C 21.625 45.292969 22.117188 45.175781 22.597656 45.007812 C 23.078125 44.839844 23.539062 44.625 23.976562 44.363281 C 24.414062 44.101562 24.824219 43.796875 25.199219 43.453125 C 25.578125 43.109375 25.914062 42.726562 26.214844 42.3125 C 26.515625 41.898438 26.773438 41.457031 26.984375 40.992188 C 27.195312 40.523438 27.359375 40.042969 27.472656 39.542969 L 32.089844 19.039062 Z M 19.683594 15.519531 " fill-opacity="1" fill-rule="nonzero"/><path fill="#000000" d="M 11.753906 69.097656 C 12.019531 69.09375 12.261719 69.011719 12.476562 68.851562 C 12.691406 68.6875 12.832031 68.476562 12.90625 68.214844 L 18.925781 46.652344 C 18.960938 46.503906 18.964844 46.351562 18.941406 46.199219 C 18.917969 46.042969 18.867188 45.902344 18.789062 45.765625 C 18.710938 45.632812 18.609375 45.519531 18.488281 45.425781 C 18.363281 45.332031 18.230469 45.261719 18.082031 45.21875 C 17.933594 45.179688 17.78125 45.164062 17.628906 45.183594 C 17.476562 45.199219 17.332031 45.242188 17.195312 45.316406 C 17.058594 45.386719 16.941406 45.484375 16.839844 45.601562 C 16.742188 45.722656 16.667969 45.855469 16.617188 46 L 10.613281 67.5625 C 10.5625 67.742188 10.554688 67.925781 10.589844 68.113281 C 10.625 68.296875 10.699219 68.46875 10.8125 68.617188 C 10.925781 68.769531 11.066406 68.886719 11.234375 68.96875 C 11.402344 69.054688 11.578125 69.097656 11.765625 69.097656 Z M 11.753906 69.097656 " fill-opacity="1" fill-rule="nonzero"/><g clip-path="url(#edbdaf2aea)"><path fill="#000000" d="M 17.285156 70.664062 C 17.582031 70.664062 17.84375 70.5625 18.070312 70.363281 C 18.292969 70.167969 18.425781 69.917969 18.46875 69.621094 C 18.507812 69.320312 18.445312 69.046875 18.28125 68.792969 C 18.117188 68.542969 17.890625 68.375 17.601562 68.292969 L 6.546875 65.160156 C 6.390625 65.105469 6.230469 65.085938 6.070312 65.101562 C 5.90625 65.113281 5.75 65.160156 5.605469 65.238281 C 5.460938 65.3125 5.335938 65.417969 5.234375 65.546875 C 5.132812 65.675781 5.058594 65.820312 5.011719 65.976562 C 4.96875 66.136719 4.957031 66.296875 4.976562 66.460938 C 5 66.625 5.050781 66.777344 5.136719 66.921875 C 5.21875 67.0625 5.328125 67.183594 5.460938 67.28125 C 5.59375 67.378906 5.738281 67.445312 5.898438 67.484375 L 16.960938 70.617188 C 17.066406 70.648438 17.175781 70.664062 17.285156 70.664062 Z M 17.285156 70.664062 " fill-opacity="1" fill-rule="nonzero"/></g><path fill="#000000" d="M 13.898438 30.191406 C 14.113281 30.191406 14.316406 30.140625 14.5 30.027344 C 14.535156 30.007812 17.808594 28.128906 21.742188 28.074219 C 22.800781 28.074219 23.746094 28.074219 24.617188 28.09375 C 27.355469 28.148438 29.523438 28.191406 32.164062 27.1875 C 32.304688 27.125 32.425781 27.039062 32.53125 26.929688 C 32.636719 26.816406 32.722656 26.691406 32.78125 26.550781 C 32.839844 26.410156 32.871094 26.261719 32.871094 26.109375 C 32.875 25.953125 32.851562 25.804688 32.796875 25.664062 C 32.742188 25.519531 32.664062 25.390625 32.5625 25.277344 C 32.460938 25.164062 32.339844 25.070312 32.203125 25.003906 C 32.066406 24.9375 31.921875 24.894531 31.773438 24.882812 C 31.621094 24.871094 31.472656 24.886719 31.324219 24.933594 C 29.121094 25.777344 27.253906 25.734375 24.671875 25.6875 C 23.777344 25.671875 22.808594 25.652344 21.722656 25.664062 C 18.738281 25.753906 15.933594 26.515625 13.304688 27.945312 C 13.070312 28.085938 12.902344 28.28125 12.800781 28.53125 C 12.695312 28.785156 12.679688 29.042969 12.75 29.308594 C 12.820312 29.570312 12.964844 29.785156 13.179688 29.953125 C 13.394531 30.117188 13.640625 30.199219 13.910156 30.199219 Z M 13.898438 30.191406 " fill-opacity="1" fill-rule="nonzero"/><g clip-path="url(#b405cf1877)"><path fill="#000000" d="M 37.433594 12.957031 C 37.59375 12.957031 37.746094 12.925781 37.890625 12.863281 C 38.039062 12.804688 38.167969 12.714844 38.28125 12.605469 C 38.394531 12.492188 38.480469 12.359375 38.542969 12.210938 C 38.601562 12.0625 38.632812 11.910156 38.632812 11.75 L 38.632812 5.996094 C 38.640625 5.828125 38.617188 5.671875 38.558594 5.515625 C 38.5 5.359375 38.414062 5.222656 38.304688 5.101562 C 38.191406 4.984375 38.058594 4.890625 37.90625 4.824219 C 37.757812 4.761719 37.597656 4.726562 37.433594 4.726562 C 37.269531 4.726562 37.113281 4.761719 36.960938 4.824219 C 36.8125 4.890625 36.679688 4.984375 36.566406 5.101562 C 36.453125 5.222656 36.367188 5.359375 36.3125 5.515625 C 36.253906 5.671875 36.230469 5.828125 36.238281 5.996094 L 36.238281 11.746094 C 36.234375 11.90625 36.265625 12.0625 36.328125 12.210938 C 36.386719 12.359375 36.472656 12.488281 36.585938 12.601562 C 36.699219 12.714844 36.828125 12.804688 36.972656 12.863281 C 37.121094 12.925781 37.273438 12.957031 37.433594 12.957031 Z M 37.433594 12.957031 " fill-opacity="1" fill-rule="nonzero"/></g><path fill="#000000" d="M 41.976562 13.757812 C 42.425781 13.757812 42.765625 13.566406 43 13.179688 L 44.742188 10.304688 C 44.824219 10.167969 44.878906 10.019531 44.90625 9.863281 C 44.929688 9.703125 44.921875 9.546875 44.886719 9.390625 C 44.847656 9.238281 44.78125 9.09375 44.691406 8.964844 C 44.597656 8.835938 44.480469 8.730469 44.347656 8.644531 C 44.210938 8.5625 44.066406 8.507812 43.90625 8.484375 C 43.75 8.457031 43.59375 8.464844 43.441406 8.503906 C 43.285156 8.539062 43.144531 8.605469 43.015625 8.699219 C 42.886719 8.792969 42.78125 8.910156 42.699219 9.046875 L 40.957031 11.921875 C 40.710938 12.324219 40.707031 12.730469 40.933594 13.140625 C 41.160156 13.550781 41.507812 13.757812 41.976562 13.757812 Z M 41.976562 13.757812 " fill-opacity="1" fill-rule="nonzero"/><path fill="#000000" d="M 32.890625 13.757812 C 33.117188 13.757812 33.324219 13.699219 33.515625 13.582031 C 33.648438 13.496094 33.765625 13.390625 33.855469 13.261719 C 33.949219 13.132812 34.015625 12.988281 34.054688 12.835938 C 34.089844 12.679688 34.097656 12.523438 34.070312 12.363281 C 34.046875 12.207031 33.992188 12.058594 33.910156 11.921875 L 32.167969 9.046875 C 32.082031 8.910156 31.976562 8.792969 31.851562 8.699219 C 31.722656 8.605469 31.582031 8.539062 31.425781 8.503906 C 31.269531 8.464844 31.117188 8.457031 30.957031 8.484375 C 30.800781 8.507812 30.65625 8.5625 30.519531 8.644531 C 30.386719 8.730469 30.269531 8.835938 30.175781 8.964844 C 30.082031 9.09375 30.019531 9.238281 29.980469 9.390625 C 29.945312 9.546875 29.9375 9.703125 29.960938 9.863281 C 29.988281 10.019531 30.039062 10.167969 30.125 10.304688 L 31.859375 13.179688 C 32.09375 13.570312 32.4375 13.761719 32.890625 13.757812 Z M 32.890625 13.757812 " fill-opacity="1" fill-rule="nonzero"/></svg>