<svg xmlns="http://www.w3.org/2000/svg" xmlns:xlink="http://www.w3.org/1999/xlink" width="100" zoomAndPan="magnify" viewBox="0 0 75 74.999997" height="100" preserveAspectRatio="xMidYMid meet" version="1.0"><defs><clipPath id="7fe0d93f57"><path d="M 8.492188 31 L 17 31 L 17 43 L 8.492188 43 Z M 8.492188 31 " clip-rule="nonzero"/></clipPath><clipPath id="e7f78f56b1"><path d="M 33 8.125 L 42 8.125 L 42 16 L 33 16 Z M 33 8.125 " clip-rule="nonzero"/></clipPath><clipPath id="0d6b052746"><path d="M 34 58 L 41 58 L 41 66.625 L 34 66.625 Z M 34 58 " clip-rule="nonzero"/></clipPath><clipPath id="2d0b11a2bd"><path d="M 58 35 L 66.242188 35 L 66.242188 40 L 58 40 Z M 58 35 " clip-rule="nonzero"/></clipPath></defs><path fill="#000000" d="M 47.703125 27.0625 L 43.535156 33.207031 L 43.113281 33.875 L 57.46875 37.164062 L 57.46875 37.28125 L 43.351562 40.507812 C 43.480469 40.75 43.578125 40.941406 43.679688 41.132812 C 44.601562 42.726562 45.523438 44.308594 46.4375 45.902344 C 46.503906 46.046875 46.5625 46.191406 46.613281 46.34375 C 46.425781 46.285156 46.246094 46.21875 46.066406 46.136719 L 41.183594 43.453125 C 41.050781 43.382812 40.902344 43.328125 40.683594 43.226562 C 39.601562 47.964844 38.53125 52.65625 37.457031 57.351562 L 37.390625 57.351562 L 34.195312 43.453125 C 33.929688 43.585938 33.730469 43.675781 33.546875 43.777344 L 28.625 46.386719 C 28.433594 46.484375 28.226562 46.542969 28.027344 46.625 C 28.097656 46.417969 28.179688 46.214844 28.269531 46.019531 C 29.117188 44.359375 30.03125 42.71875 30.910156 41.089844 C 31.003906 40.914062 31.085938 40.734375 31.21875 40.472656 C 26.597656 39.378906 22.003906 38.371094 17.429688 37.300781 L 17.429688 37.171875 L 31.519531 33.949219 C 31.519531 33.839844 31.519531 33.75 31.445312 33.699219 L 26.445312 27.195312 C 26.648438 27.234375 26.847656 27.296875 27.042969 27.378906 C 29.226562 28.539062 31.410156 29.699219 33.589844 30.863281 L 34.148438 31.144531 C 34.585938 29.574219 34.886719 28.003906 35.253906 26.449219 C 35.621094 24.894531 35.992188 23.339844 36.324219 21.785156 C 36.652344 20.230469 37.058594 18.648438 37.464844 17.09375 C 38.523438 21.703125 39.578125 26.324219 40.644531 30.996094 L 41.222656 30.6875 L 47.113281 27.289062 C 47.304688 27.199219 47.5 27.121094 47.703125 27.0625 Z M 37.390625 43.84375 L 37.492188 43.84375 L 38.695312 38.519531 L 40.507812 38.097656 C 41.089844 37.964844 41.683594 37.863281 42.257812 37.699219 C 42.839844 37.617188 43.390625 37.433594 43.910156 37.15625 L 38.695312 35.953125 L 37.464844 30.648438 L 37.367188 30.648438 L 36.136719 35.960938 C 35.203125 36.175781 34.347656 36.359375 33.492188 36.566406 C 32.640625 36.773438 31.769531 36.914062 30.9375 37.183594 L 30.9375 37.316406 L 36.136719 38.519531 Z M 37.390625 43.84375 " fill-opacity="1" fill-rule="nonzero"/><path fill="#000000" d="M 42.113281 63.222656 L 42.113281 61.460938 C 52.660156 58.882812 59.203125 52.332031 61.78125 41.730469 L 63.496094 41.730469 C 62.265625 51.414062 53.691406 61.425781 42.113281 63.222656 Z M 42.113281 63.222656 " fill-opacity="1" fill-rule="nonzero"/><path fill="#000000" d="M 43.179688 13.246094 L 43.179688 11.535156 C 45.167969 11.308594 51.59375 14.425781 54.738281 17.167969 C 57.128906 19.210938 59.089844 21.609375 60.625 24.355469 C 62.160156 27.101562 63.171875 30.03125 63.65625 33.140625 L 61.839844 33.140625 C 59.554688 22.824219 53.359375 16.195312 43.179688 13.246094 Z M 43.179688 13.246094 " fill-opacity="1" fill-rule="nonzero"/><path fill="#000000" d="M 12.007812 43.882812 L 13.773438 43.449219 C 14.070312 44.550781 14.4375 45.628906 14.882812 46.683594 C 15.324219 47.734375 15.839844 48.753906 16.421875 49.734375 C 17.007812 50.71875 17.65625 51.652344 18.367188 52.546875 C 19.082031 53.4375 19.855469 54.277344 20.683594 55.0625 C 21.515625 55.847656 22.394531 56.570312 23.324219 57.234375 C 24.253906 57.898438 25.226562 58.492188 26.238281 59.019531 C 27.25 59.550781 28.292969 60.007812 29.371094 60.390625 C 30.445312 60.773438 31.542969 61.082031 32.660156 61.316406 C 32.660156 61.515625 32.660156 61.667969 32.660156 61.824219 C 32.660156 62.257812 32.660156 62.699219 32.660156 63.132812 C 24.019531 61.875 14.695312 54.648438 12.007812 43.882812 Z M 12.007812 43.882812 " fill-opacity="1" fill-rule="nonzero"/><path fill="#000000" d="M 13.707031 31.089844 L 12.015625 30.65625 C 14.222656 20.917969 22.871094 13.136719 31.902344 11.5 L 31.902344 13.246094 C 22.605469 15.851562 16.542969 21.796875 13.707031 31.089844 Z M 13.707031 31.089844 " fill-opacity="1" fill-rule="nonzero"/><g clip-path="url(#7fe0d93f57)"><path fill="#000000" d="M 16.140625 33.707031 L 16.140625 36.167969 L 11.058594 37.265625 L 16.132812 38.363281 L 16.132812 40.832031 L 8.492188 42.71875 L 8.492188 40.765625 L 14.03125 39.558594 L 14.03125 39.484375 L 8.492188 38.246094 L 8.492188 36.292969 L 14.203125 35.035156 L 8.492188 33.804688 L 8.492188 31.828125 Z M 16.140625 33.707031 " fill-opacity="1" fill-rule="nonzero"/></g><g clip-path="url(#e7f78f56b1)"><path fill="#000000" d="M 39.429688 13.3125 L 39.429688 8.15625 L 41.160156 8.15625 L 41.160156 15.832031 L 38.511719 15.832031 C 37.582031 14.058594 36.648438 12.257812 35.71875 10.46875 L 35.636719 10.46875 L 35.636719 15.789062 L 33.929688 15.789062 L 33.929688 8.15625 L 36.582031 8.15625 L 39.304688 13.3125 Z M 39.429688 13.3125 " fill-opacity="1" fill-rule="nonzero"/></g><g clip-path="url(#0d6b052746)"><path fill="#000000" d="M 40.101562 58.925781 L 40.101562 60.695312 C 39.945312 60.644531 39.808594 60.609375 39.675781 60.554688 C 39.027344 60.273438 38.347656 60.128906 37.640625 60.128906 C 37.460938 60.132812 37.285156 60.167969 37.117188 60.238281 C 36.921875 60.308594 36.808594 60.445312 36.785156 60.652344 C 36.757812 60.859375 36.828125 61.019531 37 61.136719 C 37.15625 61.261719 37.328125 61.363281 37.507812 61.449219 C 37.9375 61.660156 38.378906 61.84375 38.796875 62.082031 C 39.027344 62.1875 39.230469 62.332031 39.410156 62.507812 C 39.589844 62.6875 39.734375 62.886719 39.847656 63.113281 C 39.957031 63.34375 40.027344 63.582031 40.054688 63.832031 C 40.082031 64.082031 40.070312 64.332031 40.011719 64.578125 C 39.941406 65.035156 39.742188 65.421875 39.410156 65.742188 C 39.074219 66.058594 38.679688 66.246094 38.222656 66.296875 C 37.007812 66.558594 35.847656 66.410156 34.738281 65.851562 L 35.328125 64.378906 C 35.902344 64.527344 36.417969 64.675781 36.941406 64.769531 C 37.191406 64.820312 37.4375 64.800781 37.679688 64.71875 C 37.882812 64.683594 38.003906 64.5625 38.046875 64.359375 C 38.085938 64.15625 38.019531 64 37.847656 63.886719 C 37.65625 63.730469 37.445312 63.601562 37.222656 63.496094 C 36.777344 63.265625 36.324219 63.070312 35.878906 62.832031 C 35.484375 62.636719 35.179688 62.339844 34.972656 61.945312 C 34.769531 61.550781 34.695312 61.136719 34.761719 60.695312 C 34.773438 60.273438 34.902344 59.890625 35.152344 59.546875 C 35.398438 59.203125 35.71875 58.957031 36.117188 58.808594 C 36.757812 58.550781 37.429688 58.429688 38.121094 58.449219 C 38.816406 58.472656 39.472656 58.628906 40.101562 58.925781 Z M 40.101562 58.925781 " fill-opacity="1" fill-rule="nonzero"/></g><g clip-path="url(#2d0b11a2bd)"><path fill="#000000" d="M 66.257812 35.238281 L 66.257812 39.660156 L 64.710938 39.660156 L 64.710938 37.242188 L 63.414062 37.242188 L 63.414062 39.453125 L 61.78125 39.453125 L 61.78125 37.242188 L 60.304688 37.242188 L 60.304688 39.683594 L 58.648438 39.683594 L 58.648438 35.261719 C 61.183594 35.113281 63.722656 35.105469 66.257812 35.238281 Z M 66.257812 35.238281 " fill-opacity="1" fill-rule="nonzero"/></g><path fill="#000000" d="M 46.613281 46.359375 L 46.664062 46.359375 C 46.664062 46.359375 46.664062 46.359375 46.664062 46.402344 L 46.664062 46.335938 Z M 46.613281 46.359375 " fill-opacity="1" fill-rule="nonzero"/><path fill="#000000" d="M 28.027344 46.585938 L 27.992188 46.667969 L 28.035156 46.601562 Z M 28.027344 46.585938 " fill-opacity="1" fill-rule="nonzero"/></svg>