<svg xmlns="http://www.w3.org/2000/svg" xmlns:xlink="http://www.w3.org/1999/xlink" width="100" zoomAndPan="magnify" viewBox="0 0 75 74.999997" height="100" preserveAspectRatio="xMidYMid meet" version="1.0"><defs><clipPath id="84c765a146"><path d="M 26 15 L 63.515625 15 L 63.515625 69.070312 L 26 69.070312 Z M 26 15 " clip-rule="nonzero"/></clipPath><clipPath id="669ab00d68"><path d="M 12 6.070312 L 50 6.070312 L 50 65 L 12 65 Z M 12 6.070312 " clip-rule="nonzero"/></clipPath></defs><g clip-path="url(#84c765a146)"><path fill="#000000" d="M 59.054688 69.09375 L 30.464844 69.09375 C 30.179688 69.09375 29.898438 69.066406 29.617188 69.011719 C 29.339844 68.953125 29.066406 68.871094 28.804688 68.761719 C 28.542969 68.65625 28.292969 68.523438 28.058594 68.363281 C 27.820312 68.207031 27.601562 68.027344 27.398438 67.828125 C 27.199219 67.625 27.019531 67.410156 26.863281 67.171875 C 26.703125 66.9375 26.570312 66.6875 26.460938 66.425781 C 26.351562 66.164062 26.269531 65.894531 26.214844 65.617188 C 26.15625 65.339844 26.128906 65.058594 26.128906 64.773438 L 26.128906 19.460938 C 26.128906 19.175781 26.15625 18.894531 26.214844 18.617188 C 26.269531 18.339844 26.351562 18.070312 26.460938 17.808594 C 26.570312 17.546875 26.703125 17.296875 26.863281 17.0625 C 27.019531 16.824219 27.199219 16.609375 27.398438 16.40625 C 27.601562 16.207031 27.820312 16.027344 28.058594 15.871094 C 28.292969 15.710938 28.542969 15.578125 28.804688 15.472656 C 29.066406 15.363281 29.339844 15.28125 29.617188 15.222656 C 29.898438 15.167969 30.179688 15.140625 30.464844 15.140625 L 59.054688 15.140625 C 59.335938 15.140625 59.621094 15.167969 59.898438 15.222656 C 60.175781 15.28125 60.449219 15.363281 60.710938 15.472656 C 60.972656 15.578125 61.222656 15.710938 61.460938 15.871094 C 61.695312 16.027344 61.914062 16.207031 62.117188 16.40625 C 62.316406 16.609375 62.496094 16.824219 62.65625 17.0625 C 62.8125 17.296875 62.945312 17.546875 63.054688 17.808594 C 63.164062 18.070312 63.246094 18.339844 63.304688 18.617188 C 63.359375 18.894531 63.386719 19.175781 63.386719 19.460938 L 63.386719 64.773438 C 63.386719 65.058594 63.359375 65.339844 63.304688 65.617188 C 63.246094 65.894531 63.164062 66.164062 63.054688 66.425781 C 62.945312 66.6875 62.8125 66.9375 62.65625 67.171875 C 62.496094 67.410156 62.316406 67.625 62.117188 67.828125 C 61.914062 68.027344 61.695312 68.207031 61.460938 68.363281 C 61.222656 68.523438 60.972656 68.65625 60.710938 68.761719 C 60.449219 68.871094 60.175781 68.953125 59.898438 69.011719 C 59.621094 69.066406 59.335938 69.09375 59.054688 69.09375 Z M 30.464844 17.058594 C 30.144531 17.058594 29.835938 17.121094 29.542969 17.242188 C 29.246094 17.363281 28.984375 17.539062 28.761719 17.761719 C 28.535156 17.988281 28.359375 18.246094 28.238281 18.542969 C 28.117188 18.835938 28.054688 19.140625 28.054688 19.460938 L 28.054688 64.773438 C 28.054688 65.09375 28.117188 65.398438 28.238281 65.691406 C 28.359375 65.988281 28.535156 66.246094 28.761719 66.472656 C 28.984375 66.695312 29.246094 66.871094 29.542969 66.992188 C 29.835938 67.113281 30.144531 67.175781 30.464844 67.175781 L 59.054688 67.175781 C 59.371094 67.175781 59.679688 67.113281 59.976562 66.992188 C 60.269531 66.871094 60.53125 66.695312 60.757812 66.472656 C 60.980469 66.246094 61.15625 65.988281 61.277344 65.691406 C 61.402344 65.398438 61.460938 65.09375 61.460938 64.773438 L 61.460938 19.460938 C 61.460938 19.140625 61.402344 18.835938 61.277344 18.542969 C 61.15625 18.246094 60.980469 17.988281 60.757812 17.761719 C 60.53125 17.539062 60.269531 17.363281 59.976562 17.242188 C 59.679688 17.121094 59.371094 17.058594 59.054688 17.058594 Z M 30.464844 17.058594 " fill-opacity="1" fill-rule="nonzero"/></g><path fill="#000000" d="M 44.757812 50.367188 C 44.410156 50.367188 44.140625 50.222656 43.949219 49.933594 L 39.15625 42.640625 C 39.050781 42.480469 39 42.304688 39 42.117188 C 39 41.925781 39.050781 41.75 39.15625 41.589844 L 43.953125 34.234375 C 44.042969 34.097656 44.160156 33.988281 44.300781 33.910156 C 44.445312 33.832031 44.597656 33.792969 44.761719 33.792969 C 44.925781 33.792969 45.078125 33.832031 45.222656 33.910156 C 45.367188 33.988281 45.484375 34.097656 45.570312 34.234375 L 50.371094 41.589844 C 50.476562 41.75 50.527344 41.925781 50.527344 42.117188 C 50.527344 42.304688 50.476562 42.480469 50.371094 42.640625 L 45.558594 49.933594 C 45.367188 50.21875 45.101562 50.363281 44.757812 50.367188 Z M 41.109375 42.109375 L 44.757812 47.660156 L 48.40625 42.109375 L 44.757812 36.511719 Z M 41.109375 42.109375 " fill-opacity="1" fill-rule="nonzero"/><path fill="#000000" d="M 56.324219 28.132812 C 55.976562 28.136719 55.707031 27.992188 55.515625 27.699219 L 52.875 23.683594 C 52.769531 23.527344 52.71875 23.351562 52.71875 23.160156 C 52.71875 22.972656 52.769531 22.796875 52.875 22.636719 L 55.515625 18.585938 C 55.605469 18.449219 55.71875 18.339844 55.863281 18.261719 C 56.007812 18.183594 56.160156 18.144531 56.324219 18.144531 C 56.488281 18.144531 56.640625 18.183594 56.785156 18.261719 C 56.929688 18.339844 57.046875 18.449219 57.132812 18.585938 L 59.773438 22.636719 C 59.878906 22.796875 59.929688 22.96875 59.929688 23.160156 C 59.929688 23.351562 59.878906 23.523438 59.773438 23.683594 L 57.132812 27.699219 C 56.941406 27.988281 56.671875 28.132812 56.324219 28.132812 Z M 54.832031 23.15625 L 56.324219 25.425781 L 57.816406 23.15625 L 56.324219 20.867188 Z M 54.832031 23.15625 " fill-opacity="1" fill-rule="nonzero"/><path fill="#000000" d="M 33.191406 66.085938 C 32.84375 66.085938 32.574219 65.941406 32.382812 65.652344 L 29.742188 61.636719 C 29.636719 61.476562 29.585938 61.304688 29.585938 61.113281 C 29.585938 60.921875 29.636719 60.75 29.742188 60.589844 L 32.382812 56.539062 C 32.472656 56.398438 32.585938 56.292969 32.730469 56.214844 C 32.875 56.136719 33.027344 56.097656 33.191406 56.097656 C 33.355469 56.097656 33.507812 56.136719 33.652344 56.214844 C 33.796875 56.292969 33.914062 56.398438 34 56.539062 L 36.644531 60.589844 C 36.746094 60.746094 36.800781 60.921875 36.800781 61.113281 C 36.800781 61.300781 36.746094 61.476562 36.644531 61.636719 L 34 65.652344 C 33.808594 65.941406 33.539062 66.085938 33.191406 66.085938 Z M 31.699219 61.109375 L 33.191406 63.378906 L 34.683594 61.109375 L 33.191406 58.820312 Z M 31.699219 61.109375 " fill-opacity="1" fill-rule="nonzero"/><g clip-path="url(#669ab00d68)"><path fill="#000000" d="M 25.050781 64.917969 C 24.527344 64.917969 24.023438 64.828125 23.53125 64.652344 C 23.042969 64.476562 22.597656 64.222656 22.195312 63.890625 C 21.792969 63.558594 21.460938 63.171875 21.195312 62.722656 C 20.929688 62.277344 20.746094 61.800781 20.648438 61.289062 L 12.136719 17.082031 C 12.082031 16.792969 12.054688 16.503906 12.054688 16.207031 C 12.058594 15.914062 12.089844 15.625 12.148438 15.335938 C 12.207031 15.050781 12.292969 14.769531 12.410156 14.5 C 12.523438 14.230469 12.664062 13.972656 12.828125 13.730469 C 12.992188 13.488281 13.183594 13.261719 13.390625 13.054688 C 13.601562 12.851562 13.828125 12.667969 14.074219 12.503906 C 14.320312 12.34375 14.582031 12.207031 14.851562 12.097656 C 15.125 11.988281 15.40625 11.902344 15.695312 11.847656 L 43.476562 6.539062 C 43.765625 6.484375 44.058594 6.457031 44.351562 6.460938 C 44.648438 6.460938 44.9375 6.492188 45.226562 6.550781 C 45.515625 6.609375 45.796875 6.699219 46.066406 6.8125 C 46.339844 6.925781 46.59375 7.066406 46.839844 7.230469 C 47.082031 7.394531 47.308594 7.582031 47.515625 7.792969 C 47.722656 8 47.90625 8.226562 48.066406 8.472656 C 48.230469 8.71875 48.367188 8.976562 48.476562 9.246094 C 48.589844 9.519531 48.671875 9.796875 48.726562 10.085938 L 49.851562 15.917969 C 49.878906 16.058594 49.875 16.199219 49.839844 16.335938 C 49.804688 16.476562 49.738281 16.601562 49.648438 16.710938 C 49.554688 16.820312 49.445312 16.90625 49.316406 16.96875 C 49.1875 17.027344 49.050781 17.058594 48.90625 17.058594 L 30.613281 17.058594 C 30.273438 17.058594 29.949219 17.125 29.636719 17.253906 C 29.320312 17.382812 29.042969 17.566406 28.804688 17.808594 C 28.566406 18.046875 28.378906 18.320312 28.25 18.632812 C 28.121094 18.945312 28.054688 19.273438 28.054688 19.609375 L 28.054688 63.632812 C 28.054688 63.863281 27.980469 64.066406 27.832031 64.242188 C 27.6875 64.421875 27.5 64.53125 27.273438 64.574219 L 25.898438 64.835938 C 25.617188 64.890625 25.335938 64.917969 25.050781 64.917969 Z M 27.089844 63.632812 Z M 44.324219 8.371094 C 44.160156 8.375 44 8.386719 43.839844 8.417969 L 16.058594 13.730469 C 15.726562 13.796875 15.417969 13.921875 15.132812 14.105469 C 14.851562 14.292969 14.613281 14.527344 14.421875 14.804688 C 14.230469 15.085938 14.101562 15.390625 14.035156 15.722656 C 13.964844 16.054688 13.960938 16.386719 14.027344 16.71875 L 22.535156 60.929688 C 22.601562 61.261719 22.726562 61.566406 22.914062 61.851562 C 23.101562 62.132812 23.332031 62.367188 23.613281 62.558594 C 23.894531 62.75 24.203125 62.878906 24.535156 62.945312 C 24.867188 63.015625 25.199219 63.015625 25.535156 62.953125 L 26.128906 62.839844 L 26.128906 19.609375 C 26.128906 19.316406 26.160156 19.027344 26.214844 18.738281 C 26.273438 18.453125 26.359375 18.171875 26.472656 17.902344 C 26.585938 17.628906 26.722656 17.371094 26.886719 17.128906 C 27.050781 16.882812 27.238281 16.660156 27.445312 16.453125 C 27.652344 16.242188 27.878906 16.058594 28.125 15.894531 C 28.367188 15.734375 28.628906 15.59375 28.898438 15.480469 C 29.171875 15.371094 29.453125 15.285156 29.738281 15.226562 C 30.027344 15.171875 30.320312 15.140625 30.613281 15.140625 L 47.742188 15.140625 L 46.835938 10.445312 C 46.78125 10.15625 46.675781 9.882812 46.523438 9.625 C 46.375 9.371094 46.183594 9.148438 45.953125 8.960938 C 45.722656 8.769531 45.46875 8.625 45.1875 8.523438 C 44.910156 8.425781 44.621094 8.375 44.324219 8.371094 Z M 44.324219 8.371094 " fill-opacity="1" fill-rule="nonzero"/></g></svg>