<svg xmlns="http://www.w3.org/2000/svg" xmlns:xlink="http://www.w3.org/1999/xlink" width="100" zoomAndPan="magnify" viewBox="0 0 75 74.999997" height="100" preserveAspectRatio="xMidYMid meet" version="1.0"><defs><clipPath id="bc54f1539b"><path d="M 5.101562 9.191406 L 69.601562 9.191406 L 69.601562 65.441406 L 5.101562 65.441406 Z M 5.101562 9.191406 " clip-rule="nonzero"/></clipPath></defs><rect x="-7.5" width="90" fill="#ffffff" y="-7.5" height="89.999996" fill-opacity="1"/><rect x="-7.5" width="90" fill="#ffffff" y="-7.5" height="89.999996" fill-opacity="1"/><g clip-path="url(#bc54f1539b)"><path fill="#000000" d="M 66.628906 39.292969 C 66.628906 37.375 65.277344 35.8125 63.613281 35.8125 L 61.75 35.8125 C 60.980469 35.8125 60.339844 35.21875 60.289062 34.449219 C 59.433594 21.71875 49.574219 12.113281 37.351562 12.113281 C 37.070312 12.113281 36.789062 12.125 36.507812 12.136719 C 37.976562 14.289062 41.507812 18.316406 47.855469 19.207031 C 48.652344 19.320312 49.210938 20.058594 49.097656 20.859375 C 48.996094 21.589844 48.371094 22.117188 47.652344 22.117188 C 47.585938 22.117188 47.515625 22.113281 47.445312 22.101562 C 38.5 20.847656 34.28125 14.277344 33.285156 12.484375 C 30.824219 12.929688 28.503906 13.773438 26.386719 14.957031 C 27.808594 17.382812 32.878906 24.726562 42.972656 26.253906 C 43.769531 26.375 44.320312 27.121094 44.199219 27.917969 C 44.089844 28.640625 43.464844 29.160156 42.753906 29.160156 C 42.679688 29.160156 42.605469 29.15625 42.53125 29.144531 C 31.273438 27.4375 25.671875 19.546875 23.921875 16.550781 C 18.539062 20.558594 14.917969 26.960938 14.414062 34.449219 C 14.363281 35.21875 13.726562 35.8125 12.953125 35.8125 L 11.089844 35.8125 C 9.429688 35.8125 8.078125 37.375 8.078125 39.292969 C 8.078125 41.207031 9.429688 42.765625 11.089844 42.765625 L 12.957031 42.765625 C 13.726562 42.765625 14.363281 43.359375 14.417969 44.128906 C 15.21875 55.640625 23.796875 62.515625 37.351562 62.515625 C 50.910156 62.515625 59.484375 55.640625 60.289062 44.128906 C 60.34375 43.359375 60.980469 42.765625 61.75 42.765625 L 63.613281 42.765625 C 65.277344 42.765625 66.628906 41.207031 66.628906 39.292969 Z M 69.554688 39.292969 C 69.554688 42.820312 66.890625 45.6875 63.613281 45.6875 L 63.078125 45.6875 C 61.59375 57.910156 51.859375 65.4375 37.351562 65.4375 C 22.84375 65.4375 13.109375 57.910156 11.625 45.6875 L 11.089844 45.6875 C 7.816406 45.6875 5.148438 42.820312 5.148438 39.292969 C 5.148438 35.761719 7.816406 32.890625 11.089844 32.890625 L 11.617188 32.890625 C 13.171875 19.289062 24.011719 9.191406 37.351562 9.191406 C 50.691406 9.191406 61.535156 19.289062 63.085938 32.890625 L 63.613281 32.890625 C 66.890625 32.890625 69.554688 35.761719 69.554688 39.292969 Z M 23.964844 35.722656 C 22.558594 35.746094 21.421875 36.925781 21.433594 38.351562 C 21.445312 39.816406 22.542969 40.890625 24.011719 40.878906 C 25.488281 40.867188 26.550781 39.785156 26.535156 38.308594 C 26.519531 36.882812 25.34375 35.703125 23.964844 35.722656 Z M 53.535156 38.386719 C 53.558594 37.007812 52.402344 35.808594 50.980469 35.734375 C 49.621094 35.664062 48.394531 36.855469 48.359375 38.28125 C 48.324219 39.734375 49.398438 40.84375 50.875 40.878906 C 52.316406 40.917969 53.511719 39.796875 53.535156 38.386719 Z M 37.695312 51.929688 C 34.867188 51.867188 32.707031 51.058594 30.851562 49.441406 C 30.105469 48.789062 29.605469 48.042969 30.375 47.183594 C 31.082031 46.390625 31.851562 46.730469 32.585938 47.34375 C 35.625 49.890625 39.277344 49.878906 42.375 47.3125 C 43.125 46.691406 43.863281 46.417969 44.574219 47.222656 C 45.308594 48.0625 44.835938 48.757812 44.144531 49.382812 C 42.199219 51.125 39.902344 51.90625 37.695312 51.929688 " fill-opacity="1" fill-rule="nonzero"/></g></svg>