<svg xmlns="http://www.w3.org/2000/svg" xmlns:xlink="http://www.w3.org/1999/xlink" width="100" zoomAndPan="magnify" viewBox="0 0 75 74.999997" height="100" preserveAspectRatio="xMidYMid meet" version="1.0"><defs><clipPath id="38704862b7"><path d="M 22 6.601562 L 68.578125 6.601562 L 68.578125 52 L 22 52 Z M 22 6.601562 " clip-rule="nonzero"/></clipPath><clipPath id="a59756dc76"><path d="M 6.328125 21 L 54 21 L 54 68.101562 L 6.328125 68.101562 Z M 6.328125 21 " clip-rule="nonzero"/></clipPath></defs><path fill="#000000" d="M 54.707031 24.902344 C 55.144531 24.902344 55.480469 24.757812 55.769531 24.515625 C 56.542969 23.746094 56.0625 21.960938 54.707031 20.566406 C 53.789062 19.652344 52.679688 19.121094 51.808594 19.121094 C 51.371094 19.121094 51.035156 19.265625 50.746094 19.507812 C 49.972656 20.277344 50.453125 22.058594 51.808594 23.457031 C 52.726562 24.371094 53.835938 24.902344 54.707031 24.902344 Z M 51.371094 20.179688 C 51.46875 20.085938 51.613281 20.085938 51.710938 20.085938 C 52.195312 20.085938 53.066406 20.375 53.933594 21.242188 C 54.464844 21.769531 54.902344 22.445312 55.046875 23.023438 C 55.144531 23.40625 55.144531 23.695312 54.996094 23.839844 C 54.902344 23.9375 54.757812 23.9375 54.660156 23.9375 C 54.175781 23.9375 53.304688 23.648438 52.4375 22.78125 C 51.324219 21.625 51.132812 20.46875 51.371094 20.179688 Z M 51.371094 20.179688 " fill-opacity="1" fill-rule="nonzero"/><path fill="#000000" d="M 38.082031 14.351562 C 37.890625 14.304688 37.742188 14.304688 37.597656 14.304688 C 36.535156 14.304688 35.375 15.21875 34.746094 16.566406 C 34.023438 18.109375 34.359375 19.652344 35.519531 19.988281 C 35.664062 20.035156 35.808594 20.035156 36.003906 20.035156 C 37.066406 20.035156 38.226562 19.121094 38.855469 17.773438 C 39.53125 16.28125 39.195312 14.738281 38.082031 14.351562 Z M 37.9375 17.433594 C 37.453125 18.496094 36.535156 19.121094 35.957031 19.121094 C 35.90625 19.121094 35.808594 19.121094 35.761719 19.074219 C 35.664062 19.023438 35.519531 18.976562 35.425781 18.734375 C 35.277344 18.398438 35.230469 17.722656 35.617188 16.953125 C 36.101562 15.894531 37.019531 15.269531 37.597656 15.269531 C 37.648438 15.269531 37.742188 15.269531 37.792969 15.316406 C 37.890625 15.363281 38.035156 15.414062 38.128906 15.652344 C 38.273438 15.941406 38.324219 16.617188 37.9375 17.433594 Z M 37.9375 17.433594 " fill-opacity="1" fill-rule="nonzero"/><path fill="#000000" d="M 56.882812 40.3125 C 57.460938 40.3125 58.089844 40.21875 58.769531 39.929688 C 60.605469 39.207031 61.765625 37.710938 61.328125 36.605469 C 61.085938 35.882812 60.21875 35.496094 59.152344 35.496094 C 58.574219 35.496094 57.945312 35.59375 57.269531 35.882812 C 55.433594 36.605469 54.273438 38.097656 54.707031 39.207031 C 54.996094 39.929688 55.867188 40.3125 56.882812 40.3125 Z M 57.65625 36.75 C 58.1875 36.558594 58.671875 36.460938 59.152344 36.460938 C 59.78125 36.460938 60.3125 36.652344 60.410156 36.941406 C 60.554688 37.421875 59.832031 38.484375 58.382812 39.0625 C 57.847656 39.253906 57.367188 39.351562 56.882812 39.351562 C 56.253906 39.351562 55.722656 39.15625 55.625 38.867188 C 55.480469 38.386719 56.207031 37.328125 57.65625 36.75 Z M 57.65625 36.75 " fill-opacity="1" fill-rule="nonzero"/><g clip-path="url(#38704862b7)"><path fill="#000000" d="M 67.855469 32.125 L 62.539062 17.144531 C 61.8125 15.171875 59.589844 12.957031 57.609375 12.234375 L 42.578125 6.933594 C 42.046875 6.742188 41.417969 6.644531 40.789062 6.644531 C 39.097656 6.644531 37.308594 7.273438 36.195312 8.378906 L 24.550781 19.988281 C 23.777344 20.757812 23.195312 21.867188 22.90625 23.070312 L 23.292969 22.878906 C 23.871094 22.589844 24.550781 22.394531 25.273438 22.25 C 25.46875 21.914062 25.660156 21.625 25.902344 21.386719 L 37.597656 9.730469 C 38.035156 9.296875 38.660156 8.957031 39.339844 8.765625 L 44.847656 28.320312 L 44.363281 28.800781 L 46.203125 29.667969 C 46.394531 29.765625 46.539062 29.863281 46.734375 29.957031 L 65.96875 35.449219 C 65.777344 36.074219 65.4375 36.703125 65.050781 37.085938 L 53.355469 48.742188 C 52.773438 49.320312 51.808594 49.753906 50.792969 49.945312 L 50.792969 51.875 C 52.292969 51.679688 53.789062 51.007812 54.757812 50.089844 L 66.453125 38.433594 C 67.949219 36.941406 68.578125 34.101562 67.855469 32.125 Z M 41.320312 8.574219 C 41.5625 8.621094 41.804688 8.667969 41.996094 8.71875 L 57.027344 14.015625 C 58.476562 14.546875 60.265625 16.328125 60.796875 17.773438 L 66.113281 32.75 C 66.210938 32.992188 66.257812 33.234375 66.257812 33.523438 L 46.78125 27.984375 Z M 41.320312 8.574219 " fill-opacity="1" fill-rule="nonzero"/></g><path fill="#000000" d="M 27.59375 35.835938 C 29.480469 35.835938 30.976562 34.96875 30.976562 33.90625 C 30.976562 32.847656 29.480469 31.980469 27.59375 31.980469 C 25.710938 31.980469 24.210938 32.847656 24.210938 33.90625 C 24.210938 34.96875 25.710938 35.835938 27.59375 35.835938 Z M 27.59375 32.945312 C 29.140625 32.945312 30.011719 33.617188 30.011719 33.90625 C 30.011719 34.195312 29.140625 34.871094 27.59375 34.871094 C 26.046875 34.871094 25.179688 34.195312 25.179688 33.90625 C 25.179688 33.617188 26.046875 32.945312 27.59375 32.945312 Z M 27.59375 32.945312 " fill-opacity="1" fill-rule="nonzero"/><path fill="#000000" d="M 11.933594 39.351562 C 11.695312 39.351562 11.5 39.398438 11.257812 39.496094 C 10.148438 40.023438 9.855469 41.953125 10.582031 43.734375 C 11.210938 45.179688 12.273438 46.09375 13.289062 46.09375 C 13.53125 46.09375 13.722656 46.046875 13.964844 45.949219 C 15.078125 45.417969 15.367188 43.492188 14.640625 41.710938 C 14.011719 40.265625 12.902344 39.351562 11.933594 39.351562 Z M 13.53125 45.082031 C 13.480469 45.128906 13.386719 45.128906 13.289062 45.128906 C 12.757812 45.128906 11.984375 44.503906 11.5 43.347656 C 10.871094 41.902344 11.210938 40.601562 11.695312 40.363281 C 11.742188 40.3125 11.839844 40.3125 11.933594 40.3125 C 12.464844 40.3125 13.238281 40.941406 13.722656 42.097656 C 14.351562 43.539062 14.011719 44.839844 13.53125 45.082031 Z M 13.53125 45.082031 " fill-opacity="1" fill-rule="nonzero"/><path fill="#000000" d="M 11.933594 49.945312 C 11.695312 49.945312 11.5 49.996094 11.257812 50.089844 C 10.148438 50.621094 9.855469 52.546875 10.582031 54.328125 C 11.210938 55.773438 12.273438 56.691406 13.289062 56.691406 C 13.53125 56.691406 13.722656 56.640625 13.964844 56.546875 C 15.078125 56.015625 15.367188 54.089844 14.640625 52.308594 C 14.011719 50.863281 12.902344 49.945312 11.933594 49.945312 Z M 13.53125 55.679688 C 13.480469 55.726562 13.386719 55.726562 13.289062 55.726562 C 12.757812 55.726562 11.984375 55.101562 11.5 53.945312 C 10.871094 52.5 11.210938 51.199219 11.695312 50.957031 C 11.742188 50.910156 11.839844 50.910156 11.933594 50.910156 C 12.464844 50.910156 13.238281 51.535156 13.722656 52.691406 C 14.351562 54.136719 14.011719 55.4375 13.53125 55.679688 Z M 13.53125 55.679688 " fill-opacity="1" fill-rule="nonzero"/><path fill="#000000" d="M 21.601562 44.648438 C 21.359375 44.648438 21.167969 44.695312 20.925781 44.792969 C 19.8125 45.324219 19.523438 47.25 20.246094 49.03125 C 20.875 50.476562 21.941406 51.390625 22.953125 51.390625 C 23.195312 51.390625 23.390625 51.34375 23.632812 51.246094 C 24.742188 50.71875 25.03125 48.789062 24.308594 47.007812 C 23.679688 45.5625 22.566406 44.648438 21.601562 44.648438 Z M 23.195312 50.378906 C 23.148438 50.429688 23.050781 50.429688 22.953125 50.429688 C 22.421875 50.429688 21.648438 49.800781 21.167969 48.644531 C 20.539062 47.203125 20.875 45.902344 21.359375 45.660156 C 21.40625 45.613281 21.503906 45.613281 21.601562 45.613281 C 22.132812 45.613281 22.90625 46.238281 23.390625 47.394531 C 24.019531 48.839844 23.679688 50.140625 23.195312 50.378906 Z M 23.195312 50.378906 " fill-opacity="1" fill-rule="nonzero"/><path fill="#000000" d="M 21.601562 55.246094 C 21.359375 55.246094 21.167969 55.292969 20.925781 55.390625 C 19.8125 55.917969 19.523438 57.847656 20.246094 59.628906 C 20.875 61.074219 21.941406 61.988281 22.953125 61.988281 C 23.195312 61.988281 23.390625 61.941406 23.632812 61.84375 C 24.742188 61.3125 25.03125 59.386719 24.308594 57.605469 C 23.679688 56.160156 22.566406 55.246094 21.601562 55.246094 Z M 23.195312 60.976562 C 23.148438 61.023438 23.050781 61.023438 22.953125 61.023438 C 22.421875 61.023438 21.648438 60.398438 21.167969 59.242188 C 20.539062 57.796875 20.875 56.496094 21.359375 56.257812 C 21.40625 56.207031 21.503906 56.207031 21.601562 56.207031 C 22.132812 56.207031 22.90625 56.835938 23.390625 57.988281 C 24.019531 59.433594 23.679688 60.734375 23.195312 60.976562 Z M 23.195312 60.976562 " fill-opacity="1" fill-rule="nonzero"/><path fill="#000000" d="M 43.929688 39.496094 C 43.738281 39.398438 43.496094 39.351562 43.253906 39.351562 C 42.285156 39.351562 41.175781 40.265625 40.546875 41.710938 C 39.820312 43.492188 40.113281 45.371094 41.222656 45.949219 C 41.417969 46.046875 41.660156 46.09375 41.898438 46.09375 C 42.867188 46.09375 43.976562 45.179688 44.605469 43.734375 C 45.332031 41.953125 45.042969 40.074219 43.929688 39.496094 Z M 43.6875 43.347656 C 43.207031 44.503906 42.382812 45.128906 41.898438 45.128906 C 41.804688 45.128906 41.753906 45.128906 41.660156 45.082031 C 41.175781 44.839844 40.835938 43.539062 41.464844 42.097656 C 41.949219 40.941406 42.769531 40.3125 43.253906 40.3125 C 43.351562 40.3125 43.398438 40.3125 43.496094 40.363281 C 43.976562 40.601562 44.316406 41.902344 43.6875 43.347656 Z M 43.6875 43.347656 " fill-opacity="1" fill-rule="nonzero"/><path fill="#000000" d="M 43.929688 50.089844 C 43.738281 49.996094 43.496094 49.945312 43.253906 49.945312 C 42.285156 49.945312 41.175781 50.863281 40.546875 52.308594 C 39.820312 54.089844 40.113281 55.96875 41.222656 56.546875 C 41.417969 56.640625 41.660156 56.691406 41.898438 56.691406 C 42.867188 56.691406 43.976562 55.773438 44.605469 54.328125 C 45.332031 52.546875 45.042969 50.667969 43.929688 50.089844 Z M 43.6875 53.945312 C 43.207031 55.101562 42.382812 55.726562 41.898438 55.726562 C 41.804688 55.726562 41.753906 55.726562 41.660156 55.679688 C 41.175781 55.4375 40.835938 54.136719 41.464844 52.691406 C 41.949219 51.535156 42.769531 50.910156 43.253906 50.910156 C 43.351562 50.910156 43.398438 50.910156 43.496094 50.957031 C 43.976562 51.199219 44.316406 52.5 43.6875 53.945312 Z M 43.6875 53.945312 " fill-opacity="1" fill-rule="nonzero"/><path fill="#000000" d="M 34.265625 44.792969 C 34.070312 44.695312 33.828125 44.648438 33.585938 44.648438 C 32.621094 44.648438 31.507812 45.5625 30.878906 47.007812 C 30.15625 48.789062 30.445312 50.667969 31.558594 51.246094 C 31.75 51.34375 31.992188 51.390625 32.234375 51.390625 C 33.199219 51.390625 34.3125 50.476562 34.941406 49.03125 C 35.664062 47.25 35.375 45.371094 34.265625 44.792969 Z M 34.023438 48.644531 C 33.539062 49.800781 32.71875 50.429688 32.234375 50.429688 C 32.136719 50.429688 32.089844 50.429688 31.992188 50.378906 C 31.507812 50.140625 31.171875 48.839844 31.800781 47.394531 C 32.28125 46.238281 33.105469 45.613281 33.585938 45.613281 C 33.683594 45.613281 33.730469 45.613281 33.828125 45.660156 C 34.3125 45.902344 34.652344 47.203125 34.023438 48.644531 Z M 34.023438 48.644531 " fill-opacity="1" fill-rule="nonzero"/><path fill="#000000" d="M 34.265625 55.390625 C 34.070312 55.292969 33.828125 55.246094 33.585938 55.246094 C 32.621094 55.246094 31.507812 56.160156 30.878906 57.605469 C 30.15625 59.386719 30.445312 61.265625 31.558594 61.84375 C 31.75 61.941406 31.992188 61.988281 32.234375 61.988281 C 33.199219 61.988281 34.3125 61.074219 34.941406 59.628906 C 35.664062 57.847656 35.375 55.96875 34.265625 55.390625 Z M 34.023438 59.242188 C 33.539062 60.398438 32.71875 61.023438 32.234375 61.023438 C 32.136719 61.023438 32.089844 61.023438 31.992188 60.976562 C 31.507812 60.734375 31.171875 59.433594 31.800781 57.988281 C 32.28125 56.835938 33.105469 56.207031 33.585938 56.207031 C 33.683594 56.207031 33.730469 56.207031 33.828125 56.257812 C 34.3125 56.496094 34.652344 57.796875 34.023438 59.242188 Z M 34.023438 59.242188 " fill-opacity="1" fill-rule="nonzero"/><path fill="#000000" d="M 40.113281 28.945312 L 40.980469 29.378906 C 41.273438 28.996094 41.511719 28.5625 41.707031 28.078125 C 42.433594 26.25 42.09375 24.46875 40.933594 24.082031 C 40.789062 24.035156 40.644531 23.984375 40.449219 23.984375 C 39.386719 23.984375 38.226562 25.046875 37.597656 26.636719 C 37.453125 26.972656 37.355469 27.308594 37.308594 27.644531 L 38.226562 28.078125 C 38.273438 27.742188 38.371094 27.355469 38.515625 26.972656 C 39 25.71875 39.917969 24.949219 40.5 24.949219 C 40.546875 24.949219 40.59375 24.949219 40.644531 24.949219 C 40.789062 24.996094 40.886719 25.09375 40.980469 25.285156 C 41.222656 25.863281 41.175781 26.777344 40.835938 27.695312 C 40.644531 28.175781 40.355469 28.609375 40.113281 28.945312 Z M 40.113281 28.945312 " fill-opacity="1" fill-rule="nonzero"/><g clip-path="url(#a59756dc76)"><path fill="#000000" d="M 53.597656 44.3125 C 53.355469 43.589844 52.484375 43.203125 51.421875 43.203125 C 50.839844 43.203125 50.214844 43.300781 49.535156 43.589844 C 49.292969 43.683594 49.054688 43.78125 48.8125 43.925781 L 48.8125 36.941406 C 48.8125 36.847656 48.8125 36.796875 48.8125 36.703125 C 50.214844 35.929688 51.035156 34.679688 50.695312 33.714844 C 50.453125 32.992188 49.585938 32.605469 48.523438 32.605469 C 48.085938 32.605469 47.601562 32.65625 47.121094 32.800781 C 46.589844 32.222656 46.007812 31.742188 45.332031 31.402344 L 31.21875 24.660156 C 31.703125 22.972656 31.363281 21.433594 30.300781 21.097656 C 30.15625 21.046875 30.011719 21 29.816406 21 C 28.753906 21 27.59375 22.058594 26.964844 23.648438 C 26.917969 23.746094 26.917969 23.839844 26.871094 23.9375 C 25.855469 23.984375 24.839844 24.226562 24.066406 24.613281 L 9.808594 31.453125 C 7.875 32.367188 6.328125 34.824219 6.328125 36.941406 L 6.328125 53.316406 C 6.328125 55.4375 7.828125 58.039062 9.710938 59.097656 L 24.210938 67.285156 C 25.128906 67.816406 26.335938 68.058594 27.59375 68.058594 C 28.851562 68.058594 30.011719 67.816406 30.976562 67.285156 L 45.476562 59.097656 C 47.3125 58.039062 48.859375 55.4375 48.859375 53.316406 L 48.859375 48.019531 C 48.957031 48.019531 49.054688 48.019531 49.148438 48.019531 C 49.730469 48.019531 50.359375 47.921875 51.035156 47.632812 C 52.871094 46.960938 54.03125 45.46875 53.597656 44.3125 Z M 48.570312 33.570312 C 49.199219 33.570312 49.730469 33.761719 49.828125 34.050781 C 49.972656 34.390625 49.535156 35.113281 48.714844 35.691406 C 48.523438 34.96875 48.230469 34.292969 47.796875 33.667969 C 48.039062 33.617188 48.28125 33.570312 48.570312 33.570312 Z M 47.457031 33.234375 Z M 31.074219 24.613281 C 30.976562 24.5625 30.832031 24.515625 30.6875 24.46875 C 30.832031 24.515625 30.976562 24.5625 31.074219 24.613281 Z M 29.867188 22.011719 C 29.914062 22.011719 29.960938 22.011719 30.011719 22.011719 C 30.15625 22.058594 30.253906 22.15625 30.347656 22.347656 C 30.589844 22.828125 30.542969 23.550781 30.347656 24.324219 C 29.625 24.082031 28.800781 23.9375 27.933594 23.9375 C 28.414062 22.734375 29.285156 22.011719 29.867188 22.011719 Z M 10.628906 33.183594 L 24.9375 26.394531 C 25.613281 26.058594 26.578125 25.914062 27.59375 25.914062 C 28.609375 25.914062 29.574219 26.105469 30.253906 26.394531 L 44.558594 33.183594 C 44.847656 33.328125 45.136719 33.523438 45.378906 33.761719 L 27.546875 43.589844 L 9.808594 33.761719 C 10.097656 33.523438 10.339844 33.328125 10.628906 33.183594 Z M 10.628906 57.414062 C 9.421875 56.691406 8.261719 54.761719 8.261719 53.316406 L 8.261719 36.941406 C 8.261719 36.414062 8.40625 35.882812 8.695312 35.304688 C 8.746094 35.304688 8.746094 35.351562 8.792969 35.351562 L 26.675781 45.273438 L 26.675781 66.082031 C 26.144531 65.984375 25.613281 65.839844 25.226562 65.648438 Z M 46.925781 53.316406 C 46.925781 54.761719 45.765625 56.691406 44.558594 57.414062 L 30.011719 65.648438 C 29.625 65.890625 29.140625 66.035156 28.5625 66.082031 L 28.5625 45.226562 L 46.441406 35.402344 C 46.492188 35.402344 46.492188 35.351562 46.539062 35.351562 C 46.78125 35.882812 46.976562 36.460938 46.976562 36.992188 L 46.976562 53.316406 Z M 49.148438 47.058594 C 49.054688 47.058594 48.957031 47.058594 48.859375 47.058594 L 48.859375 45.082031 C 49.148438 44.839844 49.488281 44.648438 49.921875 44.503906 C 50.453125 44.3125 50.9375 44.214844 51.421875 44.214844 C 52.050781 44.214844 52.582031 44.40625 52.679688 44.695312 C 52.824219 45.179688 52.097656 46.238281 50.648438 46.816406 C 50.164062 46.960938 49.632812 47.058594 49.148438 47.058594 Z M 49.148438 47.058594 " fill-opacity="1" fill-rule="nonzero"/></g></svg>