<svg xmlns="http://www.w3.org/2000/svg" xmlns:xlink="http://www.w3.org/1999/xlink" width="100" zoomAndPan="magnify" viewBox="0 0 75 74.999997" height="100" preserveAspectRatio="xMidYMid meet" version="1.0"><defs><clipPath id="303694f33b"><path d="M 7 7.074219 L 68.78125 7.074219 L 68.78125 67.824219 L 7 67.824219 Z M 7 7.074219 " clip-rule="nonzero"/></clipPath></defs><rect x="-7.5" width="90" fill="#ffffff" y="-7.5" height="89.999996" fill-opacity="1"/><rect x="-7.5" width="90" fill="#ffffff" y="-7.5" height="89.999996" fill-opacity="1"/><g clip-path="url(#303694f33b)"><path fill="#000000" d="M 67.117188 19.769531 C 67.328125 19.585938 67.441406 19.359375 67.464844 19.082031 L 68.214844 8.222656 C 68.238281 7.914062 68.136719 7.652344 67.917969 7.4375 C 67.699219 7.21875 67.4375 7.121094 67.128906 7.144531 L 56.207031 7.898438 C 55.917969 7.929688 55.683594 8.054688 55.507812 8.28125 L 37.65625 28.671875 L 19.808594 8.28125 C 19.621094 8.070312 19.390625 7.957031 19.109375 7.941406 L 8.183594 7.144531 C 7.875 7.121094 7.613281 7.21875 7.394531 7.4375 C 7.175781 7.652344 7.078125 7.914062 7.101562 8.222656 L 7.851562 19.082031 C 7.882812 19.367188 8.015625 19.59375 8.246094 19.769531 L 29.402344 38.125 L 28.609375 39.03125 L 25.070312 35.484375 C 24.875 35.285156 24.632812 35.183594 24.351562 35.183594 C 24.070312 35.183594 23.828125 35.285156 23.632812 35.484375 L 19.695312 39.414062 C 19.601562 39.507812 19.527344 39.617188 19.472656 39.742188 C 19.421875 39.863281 19.394531 39.996094 19.394531 40.128906 C 19.394531 40.261719 19.421875 40.390625 19.472656 40.515625 C 19.527344 40.640625 19.601562 40.75 19.695312 40.84375 L 23.632812 44.753906 L 15.769531 52.609375 L 13.316406 50.144531 C 12.988281 49.828125 12.613281 49.582031 12.195312 49.40625 C 11.773438 49.226562 11.335938 49.132812 10.878906 49.117188 C 10.421875 49.101562 9.976562 49.167969 9.546875 49.316406 C 9.117188 49.46875 8.726562 49.6875 8.378906 49.980469 L 7.992188 50.363281 C 7.6875 50.707031 7.460938 51.09375 7.304688 51.527344 C 7.148438 51.957031 7.082031 52.398438 7.097656 52.855469 C 7.113281 53.3125 7.210938 53.75 7.398438 54.171875 C 7.582031 54.589844 7.835938 54.960938 8.164062 55.28125 L 19.808594 66.855469 C 20.484375 67.523438 21.296875 67.859375 22.25 67.863281 C 23.152344 67.875 23.925781 67.570312 24.574219 66.949219 L 25.03125 66.542969 C 25.34375 66.230469 25.585938 65.867188 25.757812 65.457031 C 25.925781 65.046875 26.011719 64.621094 26.011719 64.175781 C 26.011719 63.734375 25.925781 63.308594 25.757812 62.898438 C 25.585938 62.488281 25.34375 62.125 25.03125 61.808594 L 22.789062 59.5625 L 30.648438 51.734375 L 34.613281 55.632812 C 34.8125 55.832031 35.050781 55.933594 35.335938 55.9375 C 35.617188 55.933594 35.855469 55.832031 36.054688 55.632812 L 37.65625 54.011719 L 39.300781 55.632812 C 39.496094 55.832031 39.738281 55.933594 40.019531 55.9375 C 40.285156 55.921875 40.511719 55.824219 40.699219 55.632812 L 44.625 51.722656 L 52.484375 59.550781 L 50.234375 61.789062 C 49.917969 62.109375 49.675781 62.476562 49.507812 62.890625 C 49.339844 63.308594 49.257812 63.738281 49.261719 64.1875 C 49.265625 64.636719 49.355469 65.066406 49.535156 65.476562 C 49.710938 65.890625 49.960938 66.25 50.285156 66.566406 L 50.648438 66.886719 C 51.296875 67.550781 52.089844 67.886719 53.023438 67.894531 C 53.976562 67.890625 54.789062 67.554688 55.464844 66.886719 L 67.140625 55.28125 C 67.464844 54.960938 67.722656 54.589844 67.90625 54.171875 C 68.089844 53.75 68.191406 53.3125 68.207031 52.855469 C 68.222656 52.398438 68.152344 51.957031 68 51.527344 C 67.84375 51.09375 67.613281 50.707031 67.3125 50.363281 L 66.925781 49.980469 C 66.578125 49.6875 66.1875 49.46875 65.757812 49.316406 C 65.324219 49.167969 64.882812 49.101562 64.425781 49.117188 C 63.96875 49.132812 63.53125 49.226562 63.109375 49.40625 C 62.6875 49.582031 62.316406 49.828125 61.988281 50.144531 L 59.542969 52.609375 L 51.683594 44.753906 L 55.617188 40.84375 C 55.714844 40.75 55.789062 40.640625 55.839844 40.515625 C 55.890625 40.390625 55.917969 40.261719 55.917969 40.128906 C 55.917969 39.996094 55.890625 39.863281 55.839844 39.742188 C 55.789062 39.617188 55.714844 39.507812 55.617188 39.414062 L 51.683594 35.484375 C 51.585938 35.390625 51.476562 35.316406 51.351562 35.265625 C 51.226562 35.210938 51.097656 35.1875 50.960938 35.1875 C 50.828125 35.1875 50.699219 35.210938 50.574219 35.265625 C 50.449219 35.316406 50.339844 35.390625 50.242188 35.484375 L 46.703125 39 L 45.914062 38.09375 Z M 56.765625 9.882812 L 66.105469 9.289062 L 65.464844 18.570312 L 44.582031 36.59375 L 42.554688 34.304688 L 57.394531 19.566406 C 57.488281 19.46875 57.558594 19.355469 57.609375 19.230469 C 57.660156 19.105469 57.683594 18.972656 57.679688 18.839844 C 57.679688 18.703125 57.652344 18.574219 57.597656 18.449219 C 57.542969 18.324219 57.464844 18.214844 57.367188 18.121094 C 57.269531 18.027344 57.15625 17.953125 57.03125 17.90625 C 56.902344 17.855469 56.769531 17.832031 56.632812 17.832031 C 56.496094 17.835938 56.367188 17.863281 56.242188 17.917969 C 56.117188 17.972656 56.007812 18.046875 55.910156 18.144531 L 41.246094 32.785156 L 39.003906 30.214844 Z M 30.933594 39.453125 L 36.105469 43.925781 L 34.734375 45.117188 L 31.167969 41.578125 L 30.050781 40.460938 Z M 37.65625 48.039062 L 36.167969 46.566406 L 37.65625 45.265625 L 39.148438 46.566406 Z M 23.632812 65.0625 L 23.183594 65.464844 C 22.925781 65.71875 22.613281 65.84375 22.25 65.839844 C 21.855469 65.839844 21.519531 65.703125 21.238281 65.425781 L 9.613281 53.851562 C 9.34375 53.578125 9.191406 53.253906 9.160156 52.875 C 9.125 52.492188 9.222656 52.148438 9.441406 51.835938 L 9.828125 51.441406 C 10.070312 51.222656 10.351562 51.121094 10.679688 51.128906 C 11.144531 51.132812 11.546875 51.289062 11.886719 51.605469 L 15.050781 54.746094 L 18.003906 57.648438 L 23.601562 63.21875 C 23.722656 63.339844 23.820312 63.480469 23.886719 63.640625 C 23.957031 63.796875 23.992188 63.964844 23.992188 64.136719 C 23.996094 64.308594 23.964844 64.472656 23.902344 64.632812 C 23.839844 64.796875 23.75 64.9375 23.632812 65.0625 Z M 21.347656 58.132812 L 17.210938 54 L 25.070312 46.183594 L 29.207031 50.304688 Z M 35.292969 53.507812 L 31.367188 49.589844 L 27.515625 45.738281 L 21.875 40.128906 L 24.371094 37.648438 L 27.953125 41.214844 L 29.625 42.890625 L 36.226562 49.457031 L 35.375 50.292969 C 35.277344 50.386719 35.203125 50.496094 35.152344 50.621094 C 35.101562 50.746094 35.074219 50.875 35.074219 51.007812 C 35.074219 51.144531 35.101562 51.273438 35.152344 51.398438 C 35.203125 51.519531 35.277344 51.628906 35.375 51.722656 L 36.226562 52.570312 Z M 63.425781 51.605469 C 63.765625 51.285156 64.167969 51.125 64.632812 51.121094 C 64.960938 51.109375 65.246094 51.214844 65.484375 51.433594 L 65.871094 51.824219 C 66.09375 52.136719 66.1875 52.484375 66.15625 52.863281 C 66.121094 53.246094 65.96875 53.570312 65.699219 53.839844 L 54.066406 65.425781 C 53.933594 65.5625 53.78125 65.671875 53.605469 65.746094 C 53.425781 65.820312 53.242188 65.859375 53.050781 65.859375 C 52.859375 65.859375 52.675781 65.820312 52.5 65.746094 C 52.324219 65.671875 52.171875 65.5625 52.039062 65.425781 L 51.671875 65.105469 C 51.546875 64.980469 51.453125 64.835938 51.386719 64.671875 C 51.316406 64.511719 51.285156 64.34375 51.285156 64.167969 C 51.285156 63.992188 51.316406 63.824219 51.386719 63.660156 C 51.453125 63.496094 51.546875 63.355469 51.671875 63.230469 L 58.050781 56.871094 L 60.222656 54.714844 Z M 58.101562 54.03125 L 53.964844 58.164062 L 46.105469 50.335938 L 50.242188 46.214844 Z M 51.003906 37.679688 L 53.5 40.160156 L 47.796875 45.738281 L 43.945312 49.589844 L 40.019531 53.496094 L 37.523438 51.007812 L 45.535156 43.050781 L 47.371094 41.214844 Z M 43.902344 41.871094 L 43.550781 42.222656 L 19.402344 18.144531 C 19.308594 18.050781 19.199219 17.976562 19.074219 17.925781 C 18.949219 17.875 18.820312 17.847656 18.683594 17.847656 C 18.550781 17.847656 18.421875 17.871094 18.296875 17.921875 C 18.171875 17.972656 18.0625 18.046875 17.964844 18.140625 C 17.871094 18.234375 17.796875 18.34375 17.746094 18.46875 C 17.695312 18.589844 17.667969 18.71875 17.667969 18.851562 C 17.667969 18.984375 17.691406 19.113281 17.742188 19.238281 C 17.792969 19.363281 17.867188 19.472656 17.960938 19.566406 L 42.089844 43.625 L 40.578125 45.117188 L 9.847656 18.519531 L 9.261719 9.289062 L 18.601562 9.933594 L 45.261719 40.460938 Z M 43.902344 41.871094 " fill-opacity="1" fill-rule="nonzero"/></g></svg>