<svg xmlns="http://www.w3.org/2000/svg" xmlns:xlink="http://www.w3.org/1999/xlink" width="100" zoomAndPan="magnify" viewBox="0 0 75 74.999997" height="100" preserveAspectRatio="xMidYMid meet" version="1.0"><defs><clipPath id="ed9858e502"><path d="M 4.792969 24 L 29 24 L 29 62 L 4.792969 62 Z M 4.792969 24 " clip-rule="nonzero"/></clipPath><clipPath id="dd9cde4f4d"><path d="M 33 38 L 70 38 L 70 68.132812 L 33 68.132812 Z M 33 38 " clip-rule="nonzero"/></clipPath><clipPath id="9d2c09a831"><path d="M 30 6.632812 L 62 6.632812 L 62 39 L 30 39 Z M 30 6.632812 " clip-rule="nonzero"/></clipPath></defs><g clip-path="url(#ed9858e502)"><path fill="#000000" d="M 5.554688 30.582031 L 13.414062 30.582031 C 13.042969 30.097656 12.671875 29.546875 12.671875 28.335938 C 12.671875 27.226562 13.125 26.21875 13.855469 25.488281 C 14.585938 24.761719 15.589844 24.3125 16.703125 24.3125 C 17.816406 24.3125 18.824219 24.761719 19.554688 25.488281 C 20.285156 26.21875 20.734375 27.226562 20.734375 28.335938 C 20.734375 29.546875 20.367188 30.097656 19.996094 30.582031 L 28.007812 30.582031 C 28.429688 30.582031 28.769531 30.921875 28.769531 31.34375 L 28.769531 40.753906 C 28.769531 41.171875 28.429688 41.515625 28.007812 41.515625 L 27.734375 41.515625 C 26.769531 41.515625 26.332031 41.175781 25.863281 40.8125 C 25.554688 40.578125 25.226562 40.324219 24.449219 40.324219 C 23.757812 40.324219 23.132812 40.605469 22.675781 41.054688 C 22.222656 41.507812 21.945312 42.132812 21.945312 42.824219 C 21.945312 43.515625 22.222656 44.140625 22.675781 44.59375 C 23.132812 45.046875 23.757812 45.328125 24.449219 45.328125 C 25.226562 45.328125 25.554688 45.074219 25.863281 44.835938 C 26.328125 44.476562 26.765625 44.140625 27.734375 44.140625 L 27.734375 44.136719 L 28.007812 44.136719 C 28.429688 44.136719 28.769531 44.476562 28.769531 44.898438 L 28.769531 54.691406 C 28.769531 55.109375 28.429688 55.453125 28.007812 55.453125 L 19.996094 55.453125 C 20.367188 55.9375 20.734375 56.488281 20.734375 57.699219 C 20.734375 58.808594 20.285156 59.816406 19.554688 60.542969 C 18.824219 61.273438 17.816406 61.722656 16.703125 61.722656 C 15.589844 61.722656 14.585938 61.273438 13.855469 60.542969 C 13.125 59.816406 12.671875 58.808594 12.671875 57.699219 C 12.671875 56.488281 13.042969 55.9375 13.414062 55.453125 L 5.554688 55.453125 C 5.132812 55.453125 4.792969 55.109375 4.792969 54.691406 L 4.792969 44.898438 C 4.792969 44.476562 5.132812 44.136719 5.554688 44.136719 L 5.828125 44.136719 L 5.828125 44.140625 C 6.796875 44.140625 7.234375 44.476562 7.699219 44.835938 C 8.007812 45.074219 8.335938 45.328125 9.113281 45.328125 C 9.804688 45.328125 10.433594 45.046875 10.886719 44.59375 C 11.339844 44.140625 11.617188 43.515625 11.617188 42.824219 C 11.617188 42.132812 11.339844 41.507812 10.886719 41.054688 C 10.433594 40.605469 9.804688 40.324219 9.113281 40.324219 C 8.335938 40.324219 8.007812 40.578125 7.699219 40.8125 C 7.234375 41.175781 6.792969 41.515625 5.828125 41.515625 L 5.554688 41.515625 C 5.132812 41.515625 4.792969 41.171875 4.792969 40.753906 L 4.792969 31.34375 C 4.792969 30.921875 5.132812 30.582031 5.554688 30.582031 Z M 14.613281 32.105469 L 6.316406 32.105469 L 6.316406 39.898438 C 6.492188 39.828125 6.628906 39.722656 6.769531 39.613281 C 7.28125 39.21875 7.824219 38.800781 9.113281 38.800781 C 10.226562 38.800781 11.234375 39.25 11.964844 39.980469 C 12.695312 40.707031 13.144531 41.714844 13.144531 42.824219 C 13.144531 43.9375 12.695312 44.945312 11.964844 45.671875 C 11.234375 46.402344 10.226562 46.851562 9.113281 46.851562 C 7.824219 46.851562 7.28125 46.433594 6.769531 46.039062 C 6.628906 45.929688 6.488281 45.824219 6.316406 45.75 L 6.316406 53.929688 L 14.613281 53.929688 C 14.640625 53.929688 14.667969 53.929688 14.699219 53.933594 C 15.117188 53.980469 15.417969 54.355469 15.371094 54.773438 C 15.289062 55.511719 14.996094 55.890625 14.691406 56.285156 C 14.453125 56.59375 14.199219 56.921875 14.199219 57.699219 C 14.199219 58.390625 14.480469 59.015625 14.933594 59.46875 C 15.386719 59.921875 16.011719 60.199219 16.703125 60.199219 C 17.398438 60.199219 18.023438 59.921875 18.476562 59.46875 C 18.929688 59.015625 19.210938 58.390625 19.210938 57.699219 C 19.210938 56.921875 18.957031 56.59375 18.71875 56.285156 C 18.417969 55.898438 18.132812 55.53125 18.042969 54.828125 C 18.035156 54.785156 18.03125 54.738281 18.03125 54.691406 C 18.03125 54.269531 18.375 53.929688 18.796875 53.929688 L 27.246094 53.929688 L 27.246094 45.75 C 27.074219 45.824219 26.933594 45.929688 26.792969 46.039062 C 26.28125 46.433594 25.738281 46.851562 24.449219 46.851562 C 23.335938 46.851562 22.328125 46.402344 21.597656 45.671875 C 20.871094 44.945312 20.417969 43.9375 20.417969 42.824219 C 20.417969 41.714844 20.871094 40.707031 21.597656 39.980469 C 22.328125 39.25 23.335938 38.800781 24.449219 38.800781 C 25.738281 38.800781 26.28125 39.21875 26.792969 39.613281 C 26.933594 39.722656 27.070312 39.828125 27.246094 39.898438 L 27.246094 32.105469 L 18.796875 32.105469 C 18.769531 32.105469 18.738281 32.105469 18.710938 32.101562 C 18.292969 32.054688 17.992188 31.679688 18.035156 31.261719 L 18.039062 31.261719 C 18.121094 30.523438 18.410156 30.144531 18.71875 29.75 C 18.957031 29.441406 19.210938 29.113281 19.210938 28.335938 C 19.210938 27.644531 18.929688 27.019531 18.476562 26.566406 C 18.023438 26.113281 17.398438 25.835938 16.703125 25.835938 C 16.011719 25.835938 15.386719 26.113281 14.933594 26.566406 C 14.480469 27.019531 14.199219 27.644531 14.199219 28.335938 C 14.199219 29.113281 14.453125 29.441406 14.691406 29.746094 C 14.988281 30.136719 15.273438 30.503906 15.363281 31.207031 C 15.371094 31.25 15.378906 31.296875 15.378906 31.34375 C 15.378906 31.765625 15.035156 32.105469 14.613281 32.105469 Z M 14.613281 32.105469 " fill-opacity="1" fill-rule="nonzero"/></g><g clip-path="url(#dd9cde4f4d)"><path fill="#000000" d="M 60.820312 39.402344 L 62.84375 46.949219 C 63.21875 46.464844 63.65625 45.964844 64.828125 45.652344 C 65.898438 45.367188 66.988281 45.539062 67.882812 46.054688 L 67.503906 46.714844 L 67.886719 46.054688 C 67.902344 46.0625 67.917969 46.074219 67.9375 46.085938 C 68.792969 46.597656 69.460938 47.421875 69.75 48.457031 C 69.757812 48.46875 69.761719 48.484375 69.765625 48.5 L 69.765625 48.503906 L 69.769531 48.515625 L 69.769531 48.519531 C 69.769531 48.527344 69.773438 48.535156 69.773438 48.542969 C 70.046875 49.601562 69.867188 50.671875 69.359375 51.554688 C 68.851562 52.433594 68.011719 53.121094 66.957031 53.417969 C 66.941406 53.421875 66.929688 53.425781 66.914062 53.429688 L 66.910156 53.429688 L 66.894531 53.433594 C 66.886719 53.4375 66.878906 53.4375 66.871094 53.4375 C 65.726562 53.738281 65.105469 53.527344 64.546875 53.296875 L 66.621094 61.027344 L 66.625 61.027344 C 66.730469 61.433594 66.492188 61.851562 66.082031 61.957031 C 66.070312 61.960938 66.058594 61.964844 66.046875 61.96875 L 56.984375 64.394531 C 56.578125 64.503906 56.160156 64.261719 56.050781 63.855469 C 56.046875 63.84375 56.042969 63.828125 56.042969 63.816406 L 55.980469 63.589844 C 55.730469 62.65625 55.945312 62.148438 56.171875 61.605469 C 56.320312 61.246094 56.480469 60.859375 56.28125 60.113281 C 56.101562 59.445312 55.667969 58.914062 55.113281 58.59375 C 55.097656 58.585938 55.078125 58.574219 55.0625 58.5625 C 54.515625 58.265625 53.859375 58.171875 53.210938 58.34375 C 52.542969 58.523438 52.011719 58.953125 51.691406 59.507812 L 51.691406 59.511719 C 51.683594 59.527344 51.671875 59.546875 51.660156 59.5625 C 51.363281 60.105469 51.265625 60.761719 51.441406 61.410156 C 51.640625 62.15625 51.972656 62.410156 52.28125 62.644531 C 52.75 63.003906 53.191406 63.335938 53.441406 64.269531 L 53.511719 64.535156 L 53.515625 64.535156 C 53.625 64.941406 53.382812 65.359375 52.976562 65.46875 C 52.960938 65.46875 52.949219 65.472656 52.9375 65.476562 L 43.503906 68 C 43.097656 68.109375 42.679688 67.867188 42.570312 67.460938 C 42.566406 67.449219 42.5625 67.4375 42.5625 67.425781 L 40.496094 59.730469 C 40.125 60.214844 39.6875 60.714844 38.515625 61.027344 C 38.5 61.03125 38.488281 61.035156 38.472656 61.039062 C 37.414062 61.308594 36.339844 61.132812 35.460938 60.625 L 35.839844 59.964844 L 35.457031 60.625 C 35.441406 60.617188 35.421875 60.605469 35.40625 60.59375 C 34.539062 60.078125 33.863281 59.234375 33.578125 58.179688 L 33.578125 58.183594 C 33.574219 58.167969 33.570312 58.152344 33.570312 58.136719 C 33.296875 57.082031 33.472656 56.011719 33.984375 55.128906 L 34.640625 55.507812 L 33.980469 55.125 C 33.992188 55.109375 34 55.09375 34.011719 55.078125 C 34.53125 54.210938 35.375 53.535156 36.429688 53.25 C 37.601562 52.9375 38.230469 53.152344 38.792969 53.382812 L 36.761719 45.800781 L 36.757812 45.800781 C 36.648438 45.394531 36.890625 44.976562 37.296875 44.867188 C 37.3125 44.867188 37.324219 44.863281 37.335938 44.859375 L 46.769531 42.335938 C 47.175781 42.226562 47.59375 42.46875 47.703125 42.875 C 47.707031 42.886719 47.710938 42.898438 47.710938 42.910156 L 47.773438 43.140625 C 48.023438 44.070312 47.808594 44.582031 47.582031 45.121094 C 47.433594 45.484375 47.269531 45.867188 47.472656 46.617188 C 47.652344 47.285156 48.082031 47.816406 48.636719 48.136719 L 48.257812 48.792969 L 48.640625 48.132812 C 48.652344 48.140625 48.664062 48.148438 48.679688 48.15625 C 49.226562 48.460938 49.886719 48.558594 50.542969 48.386719 C 51.210938 48.207031 51.742188 47.773438 52.0625 47.21875 C 52.070312 47.199219 52.082031 47.183594 52.09375 47.167969 C 52.390625 46.621094 52.488281 45.96875 52.3125 45.320312 C 52.113281 44.574219 51.78125 44.320312 51.472656 44.082031 C 51.003906 43.726562 50.5625 43.390625 50.3125 42.457031 L 50.242188 42.195312 L 50.238281 42.195312 C 50.128906 41.789062 50.371094 41.371094 50.777344 41.261719 C 50.792969 41.257812 50.804688 41.253906 50.816406 41.253906 L 59.878906 38.828125 C 60.285156 38.71875 60.703125 38.960938 60.8125 39.367188 C 60.816406 39.378906 60.820312 39.390625 60.820312 39.402344 Z M 62.417969 48.300781 L 61.683594 48.5 L 59.535156 40.496094 L 52 42.511719 C 52.113281 42.660156 52.25 42.765625 52.394531 42.875 C 52.90625 43.265625 53.449219 43.679688 53.785156 44.925781 C 54.066406 45.96875 53.90625 47.03125 53.417969 47.910156 C 53.410156 47.933594 53.398438 47.957031 53.382812 47.980469 L 52.722656 47.597656 L 53.382812 47.980469 C 52.867188 48.871094 52.007812 49.566406 50.933594 49.855469 C 49.882812 50.136719 48.8125 49.972656 47.929688 49.480469 C 47.910156 49.472656 47.894531 49.464844 47.875 49.453125 L 47.878906 49.453125 L 47.875 49.453125 L 47.878906 49.449219 C 46.984375 48.933594 46.285156 48.078125 46 47.007812 C 45.664062 45.761719 45.929688 45.128906 46.175781 44.539062 C 46.246094 44.375 46.3125 44.210938 46.339844 44.027344 L 38.429688 46.144531 L 40.566406 54.109375 C 40.578125 54.148438 40.589844 54.1875 40.59375 54.230469 C 40.660156 54.644531 40.371094 55.035156 39.957031 55.097656 L 39.839844 54.34375 L 39.953125 55.097656 C 39.21875 55.210938 38.78125 55.027344 38.316406 54.832031 C 37.957031 54.683594 37.570312 54.523438 36.824219 54.722656 C 36.171875 54.898438 35.648438 55.3125 35.324219 55.847656 C 35.316406 55.863281 35.308594 55.875 35.304688 55.890625 L 35.300781 55.886719 L 35.300781 55.890625 L 35.300781 55.886719 C 34.984375 56.433594 34.875 57.09375 35.042969 57.75 C 35.050781 57.773438 35.054688 57.796875 35.0625 57.824219 C 35.242188 58.457031 35.652344 58.96875 36.179688 59.285156 C 36.195312 59.292969 36.207031 59.296875 36.21875 59.304688 L 36.21875 59.308594 C 36.765625 59.621094 37.425781 59.730469 38.085938 59.566406 C 38.109375 59.558594 38.132812 59.550781 38.15625 59.546875 C 38.878906 59.347656 39.125 59.019531 39.359375 58.714844 C 39.652344 58.332031 39.933594 57.964844 40.578125 57.695312 C 40.625 57.675781 40.671875 57.65625 40.726562 57.640625 C 41.132812 57.53125 41.550781 57.773438 41.660156 58.179688 L 40.921875 58.378906 L 41.660156 58.179688 L 43.847656 66.332031 L 51.753906 64.214844 C 51.640625 64.066406 51.503906 63.960938 51.359375 63.855469 C 50.847656 63.464844 50.304688 63.050781 49.96875 61.800781 C 49.6875 60.757812 49.847656 59.699219 50.335938 58.820312 C 50.34375 58.792969 50.355469 58.769531 50.371094 58.746094 L 51.03125 59.128906 L 50.371094 58.746094 C 50.886719 57.855469 51.746094 57.160156 52.820312 56.875 C 53.863281 56.59375 54.925781 56.753906 55.804688 57.238281 C 55.832031 57.25 55.855469 57.261719 55.875 57.273438 L 55.496094 57.933594 L 55.875 57.277344 C 56.769531 57.792969 57.464844 58.648438 57.753906 59.71875 C 58.089844 60.964844 57.824219 61.597656 57.578125 62.1875 C 57.507812 62.355469 57.441406 62.515625 57.414062 62.703125 L 64.953125 60.683594 L 62.777344 52.570312 C 62.765625 52.53125 62.753906 52.492188 62.746094 52.449219 C 62.683594 52.035156 62.96875 51.644531 63.386719 51.582031 L 63.5 52.335938 L 63.390625 51.582031 C 64.121094 51.46875 64.5625 51.652344 65.023438 51.847656 C 65.378906 51.996094 65.757812 52.152344 66.484375 51.964844 C 66.496094 51.960938 66.507812 51.960938 66.519531 51.957031 L 66.671875 52.53125 L 66.714844 52.691406 L 66.519531 51.957031 C 67.1875 51.777344 67.722656 51.347656 68.042969 50.792969 C 68.355469 50.246094 68.464844 49.582031 68.300781 48.925781 C 68.296875 48.914062 68.292969 48.902344 68.289062 48.894531 L 68.289062 48.890625 L 68.875 48.734375 L 69.027344 48.695312 L 68.289062 48.890625 C 68.117188 48.238281 67.699219 47.71875 67.164062 47.394531 C 67.148438 47.386719 67.136719 47.382812 67.121094 47.375 L 67.125 47.371094 L 67.121094 47.371094 L 67.125 47.371094 C 66.570312 47.050781 65.890625 46.945312 65.222656 47.121094 C 64.472656 47.324219 64.222656 47.652344 63.984375 47.964844 C 63.6875 48.351562 63.40625 48.722656 62.746094 48.988281 C 62.707031 49.007812 62.664062 49.027344 62.617188 49.039062 C 62.210938 49.148438 61.792969 48.90625 61.683594 48.5 Z M 66.046875 61.96875 C 65.652344 62.050781 65.253906 61.8125 65.148438 61.421875 M 56.042969 63.816406 C 56.023438 63.738281 56.019531 63.65625 56.027344 63.578125 M 42.5625 67.425781 C 42.476562 67.03125 42.714844 66.632812 43.109375 66.527344 M 37.335938 44.859375 C 37.730469 44.777344 38.128906 45.015625 38.234375 45.40625 M 60.820312 39.402344 C 60.90625 39.796875 60.667969 40.195312 60.273438 40.300781 " fill-opacity="1" fill-rule="nonzero"/></g><g clip-path="url(#9d2c09a831)"><path fill="#000000" d="M 46.878906 6.953125 L 52.019531 12.082031 C 52.097656 11.535156 52.25 10.9375 53.019531 10.171875 C 53.765625 9.425781 54.746094 9.050781 55.722656 9.050781 C 56.703125 9.050781 57.683594 9.425781 58.429688 10.171875 C 59.179688 10.917969 59.550781 11.894531 59.550781 12.875 C 59.550781 13.851562 59.179688 14.828125 58.429688 15.574219 C 57.664062 16.34375 57.066406 16.496094 56.515625 16.574219 L 61.761719 21.8125 C 62.058594 22.109375 62.058594 22.59375 61.761719 22.890625 L 61.753906 22.894531 L 55.515625 29.128906 C 55.21875 29.425781 54.734375 29.425781 54.4375 29.128906 L 54.257812 28.949219 C 53.605469 28.296875 53.539062 27.773438 53.464844 27.214844 C 53.421875 26.863281 53.371094 26.484375 52.867188 25.980469 C 52.417969 25.535156 51.828125 25.308594 51.242188 25.308594 C 50.652344 25.308594 50.0625 25.535156 49.613281 25.980469 C 49.164062 26.429688 48.9375 27.019531 48.9375 27.605469 C 48.9375 28.195312 49.164062 28.785156 49.613281 29.230469 C 50.117188 29.734375 50.496094 29.785156 50.847656 29.832031 C 51.40625 29.902344 51.933594 29.96875 52.582031 30.617188 L 52.761719 30.800781 L 52.222656 31.339844 L 52.761719 30.800781 C 53.0625 31.097656 53.0625 31.578125 52.761719 31.878906 L 52.757812 31.882812 L 46.261719 38.367188 C 45.964844 38.667969 45.480469 38.667969 45.183594 38.367188 L 45.179688 38.363281 L 39.9375 33.128906 C 39.859375 33.679688 39.707031 34.277344 38.9375 35.042969 C 38.191406 35.789062 37.210938 36.164062 36.230469 36.164062 C 35.253906 36.164062 34.273438 35.789062 33.527344 35.042969 C 32.777344 34.296875 32.40625 33.316406 32.40625 32.339844 C 32.40625 31.363281 32.777344 30.382812 33.527344 29.636719 C 34.292969 28.871094 34.890625 28.71875 35.441406 28.640625 L 30.296875 23.5 C 30 23.203125 30 22.722656 30.296875 22.425781 L 30.304688 22.417969 L 36.796875 15.933594 C 37.09375 15.636719 37.578125 15.636719 37.875 15.933594 L 37.882812 15.9375 L 38.058594 16.113281 C 38.707031 16.761719 38.773438 17.289062 38.847656 17.84375 C 38.894531 18.199219 38.941406 18.574219 39.445312 19.078125 C 39.894531 19.527344 40.484375 19.75 41.074219 19.75 C 41.660156 19.75 42.25 19.527344 42.699219 19.078125 C 43.148438 18.628906 43.375 18.042969 43.375 17.453125 C 43.375 16.863281 43.148438 16.277344 42.699219 15.828125 C 42.195312 15.324219 41.820312 15.277344 41.46875 15.230469 C 40.90625 15.160156 40.382812 15.089844 39.730469 14.441406 L 39.550781 14.261719 C 39.253906 13.964844 39.253906 13.480469 39.550781 13.183594 L 39.554688 13.175781 L 45.796875 6.945312 C 46.09375 6.648438 46.578125 6.648438 46.875 6.945312 Z M 51.800781 14.023438 L 46.335938 8.5625 L 41.25 13.644531 C 41.382812 13.6875 41.519531 13.707031 41.65625 13.722656 C 42.265625 13.800781 42.914062 13.886719 43.777344 14.75 C 44.527344 15.496094 44.898438 16.476562 44.898438 17.453125 C 44.898438 18.429688 44.527344 19.410156 43.777344 20.15625 C 43.03125 20.902344 42.050781 21.273438 41.074219 21.273438 C 40.09375 21.273438 39.113281 20.902344 38.367188 20.15625 C 37.5 19.289062 37.417969 18.644531 37.339844 18.035156 C 37.320312 17.898438 37.304688 17.761719 37.257812 17.628906 L 31.914062 22.964844 L 37.371094 28.410156 C 37.394531 28.433594 37.417969 28.457031 37.4375 28.484375 C 37.703125 28.8125 37.648438 29.292969 37.320312 29.554688 L 36.84375 28.960938 L 37.316406 29.554688 C 36.761719 30 36.3125 30.054688 35.839844 30.117188 C 35.484375 30.164062 35.109375 30.210938 34.605469 30.714844 C 34.15625 31.164062 33.929688 31.753906 33.929688 32.339844 C 33.929688 32.929688 34.15625 33.515625 34.605469 33.964844 C 35.054688 34.414062 35.644531 34.636719 36.230469 34.636719 C 36.820312 34.636719 37.410156 34.414062 37.859375 33.964844 C 38.363281 33.460938 38.414062 33.085938 38.457031 32.734375 C 38.515625 32.273438 38.574219 31.835938 38.980469 31.304688 C 39.007812 31.265625 39.039062 31.226562 39.074219 31.191406 C 39.375 30.894531 39.855469 30.894531 40.15625 31.191406 L 45.722656 36.753906 L 51.066406 31.417969 C 50.929688 31.371094 50.796875 31.355469 50.65625 31.335938 C 50.050781 31.257812 49.398438 31.175781 48.535156 30.308594 C 47.785156 29.5625 47.414062 28.585938 47.414062 27.605469 C 47.414062 26.628906 47.785156 25.652344 48.535156 24.90625 C 49.28125 24.160156 50.261719 23.785156 51.242188 23.785156 C 52.21875 23.785156 53.199219 24.160156 53.945312 24.90625 C 54.8125 25.769531 54.894531 26.417969 54.972656 27.023438 C 54.992188 27.164062 55.007812 27.296875 55.054688 27.433594 L 60.144531 22.351562 L 54.585938 16.800781 C 54.5625 16.777344 54.539062 16.753906 54.519531 16.726562 C 54.253906 16.398438 54.308594 15.921875 54.636719 15.65625 L 54.636719 15.660156 C 55.191406 15.214844 55.644531 15.15625 56.117188 15.097656 C 56.46875 15.050781 56.847656 15.003906 57.351562 14.5 C 57.800781 14.050781 58.027344 13.460938 58.027344 12.875 C 58.027344 12.285156 57.800781 11.695312 57.351562 11.246094 C 56.902344 10.800781 56.3125 10.574219 55.722656 10.574219 C 55.136719 10.574219 54.546875 10.800781 54.097656 11.246094 C 53.59375 11.75 53.542969 12.128906 53.5 12.480469 C 53.441406 12.933594 53.382812 13.363281 52.988281 13.886719 C 52.957031 13.933594 52.921875 13.980469 52.882812 14.023438 C 52.582031 14.320312 52.101562 14.320312 51.800781 14.023438 Z M 51.800781 14.023438 " fill-opacity="1" fill-rule="nonzero"/></g></svg>