<svg xmlns="http://www.w3.org/2000/svg" xmlns:xlink="http://www.w3.org/1999/xlink" width="100" zoomAndPan="magnify" viewBox="0 0 75 74.999997" height="100" preserveAspectRatio="xMidYMid meet" version="1.0"><defs><clipPath id="5a6f678cf8"><path d="M 3.988281 18.882812 L 70.738281 18.882812 L 70.738281 58.632812 L 3.988281 58.632812 Z M 3.988281 18.882812 " clip-rule="nonzero"/></clipPath></defs><g clip-path="url(#5a6f678cf8)"><path fill="#000000" d="M 56.953125 30.824219 C 56.375 30.6875 55.796875 31.050781 55.660156 31.636719 C 55.527344 32.222656 55.882812 32.808594 56.464844 32.945312 C 60.289062 33.847656 63.4375 35.019531 65.574219 36.332031 C 66.945312 37.175781 68.582031 38.5 68.582031 40.023438 C 68.582031 44.3125 55.761719 49.089844 37.363281 49.089844 C 18.960938 49.089844 6.140625 44.308594 6.140625 40.019531 C 6.140625 37.519531 10.804688 34.246094 21.175781 32.332031 C 21.078125 32.832031 21.003906 33.335938 20.953125 33.84375 C 20.800781 35.296875 21.699219 36.652344 23.085938 37.070312 C 27.753906 38.480469 32.558594 39.1875 37.363281 39.1875 C 42.167969 39.1875 46.96875 38.480469 51.640625 37.070312 C 53.027344 36.652344 53.921875 35.292969 53.773438 33.84375 C 53.355469 29.761719 51.460938 25.988281 48.445312 23.222656 C 45.40625 20.433594 41.46875 18.898438 37.363281 18.898438 C 33.257812 18.898438 29.320312 20.433594 26.285156 23.222656 C 24.242188 25.097656 22.714844 27.433594 21.808594 30.011719 C 16.78125 30.867188 12.515625 32.132812 9.449219 33.679688 C 4.933594 35.960938 3.988281 38.386719 3.988281 40.019531 C 3.988281 42.304688 5.757812 45.585938 14.203125 48.242188 C 20.40625 50.195312 28.628906 51.269531 37.363281 51.269531 C 41.351562 51.269531 45.234375 51.042969 48.867188 50.613281 C 46.183594 54.261719 41.941406 56.453125 37.363281 56.453125 C 33.988281 56.453125 30.710938 55.246094 28.136719 53.058594 C 27.679688 52.671875 27 52.730469 26.621094 53.191406 C 26.238281 53.648438 26.296875 54.335938 26.75 54.722656 C 29.714844 57.246094 33.484375 58.632812 37.363281 58.632812 C 43.304688 58.632812 48.746094 55.425781 51.6875 50.230469 C 54.917969 49.734375 57.902344 49.066406 60.523438 48.242188 C 68.964844 45.585938 70.738281 42.304688 70.738281 40.019531 C 70.738281 36.183594 65.839844 32.917969 56.953125 30.824219 Z M 27.726562 24.835938 C 30.371094 22.410156 33.792969 21.074219 37.363281 21.074219 C 40.933594 21.074219 44.355469 22.410156 46.996094 24.835938 C 49.621094 27.242188 51.265625 30.523438 51.628906 34.070312 C 51.671875 34.480469 51.417969 34.867188 51.023438 34.984375 C 42.085938 37.683594 32.636719 37.683594 23.699219 34.984375 C 23.304688 34.863281 23.050781 34.480469 23.09375 34.070312 C 23.457031 30.523438 25.101562 27.242188 27.726562 24.835938 Z M 27.726562 24.835938 " fill-opacity="1" fill-rule="nonzero"/></g><path fill="#000000" d="M 17.265625 36.808594 C 15.148438 36.808594 13.421875 38.554688 13.421875 40.695312 C 13.421875 42.839844 15.148438 44.585938 17.265625 44.585938 C 19.386719 44.585938 21.109375 42.839844 21.109375 40.695312 C 21.109375 38.554688 19.386719 36.808594 17.265625 36.808594 Z M 17.265625 42.40625 C 16.335938 42.40625 15.578125 41.640625 15.578125 40.695312 C 15.578125 39.753906 16.335938 38.984375 17.265625 38.984375 C 18.199219 38.984375 18.957031 39.753906 18.957031 40.695312 C 18.957031 41.640625 18.199219 42.40625 17.265625 42.40625 Z M 17.265625 42.40625 " fill-opacity="1" fill-rule="nonzero"/><path fill="#000000" d="M 57.457031 44.582031 C 59.574219 44.582031 61.300781 42.839844 61.300781 40.695312 C 61.300781 38.550781 59.574219 36.808594 57.457031 36.808594 C 55.335938 36.808594 53.613281 38.550781 53.613281 40.695312 C 53.613281 42.839844 55.335938 44.582031 57.457031 44.582031 Z M 57.457031 38.988281 C 58.386719 38.988281 59.148438 39.753906 59.148438 40.695312 C 59.148438 41.640625 58.390625 42.40625 57.457031 42.40625 C 56.523438 42.40625 55.765625 41.640625 55.765625 40.695312 C 55.765625 39.753906 56.523438 38.988281 57.457031 38.988281 Z M 57.457031 38.988281 " fill-opacity="1" fill-rule="nonzero"/><path fill="#000000" d="M 33.519531 44.066406 C 33.519531 46.207031 35.242188 47.953125 37.363281 47.953125 C 39.480469 47.953125 41.207031 46.207031 41.207031 44.066406 C 41.207031 41.921875 39.480469 40.175781 37.363281 40.175781 C 35.242188 40.175781 33.519531 41.921875 33.519531 44.066406 Z M 39.050781 44.066406 C 39.050781 45.007812 38.292969 45.773438 37.363281 45.773438 C 36.429688 45.773438 35.671875 45.007812 35.671875 44.066406 C 35.671875 43.121094 36.429688 42.355469 37.363281 42.355469 C 38.292969 42.355469 39.050781 43.121094 39.050781 44.066406 Z M 39.050781 44.066406 " fill-opacity="1" fill-rule="nonzero"/></svg>