<svg xmlns="http://www.w3.org/2000/svg" xmlns:xlink="http://www.w3.org/1999/xlink" width="100" zoomAndPan="magnify" viewBox="0 0 75 74.999997" height="100" preserveAspectRatio="xMidYMid meet" version="1.0"><defs><clipPath id="7befb7dc99"><path d="M 4.105469 16.613281 L 70.855469 16.613281 L 70.855469 58.613281 L 4.105469 58.613281 Z M 4.105469 16.613281 " clip-rule="nonzero"/></clipPath></defs><g clip-path="url(#7befb7dc99)"><path fill="#000000" d="M 62.511719 39.816406 L 62.511719 38.660156 C 62.511719 37.296875 61.675781 36.144531 60.425781 35.722656 L 60.425781 33.203125 C 61.675781 32.785156 62.511719 31.628906 62.511719 30.265625 L 62.511719 28.167969 C 62.511719 24.496094 59.796875 21.453125 56.253906 20.925781 L 56.253906 19.773438 C 56.253906 17.988281 54.894531 16.625 53.125 16.625 L 44.78125 16.625 C 43.007812 16.625 41.652344 17.988281 41.652344 19.773438 L 41.652344 20.820312 L 40.609375 20.820312 C 40.292969 20.820312 40.085938 20.925781 39.878906 21.136719 L 38.105469 22.921875 L 32.265625 22.921875 C 30.90625 22.921875 29.761719 23.761719 29.34375 25.019531 L 16.621094 25.019531 L 16.621094 23.96875 C 16.621094 23.339844 16.203125 22.921875 15.578125 22.921875 L 5.148438 22.921875 C 4.519531 22.921875 4.105469 23.339844 4.105469 23.96875 L 4.105469 32.363281 C 4.105469 32.996094 4.519531 33.414062 5.148438 33.414062 L 15.578125 33.414062 C 16.203125 33.414062 16.621094 32.996094 16.621094 32.363281 L 16.621094 31.316406 L 29.34375 31.316406 C 29.65625 32.15625 30.386719 32.890625 31.222656 33.203125 L 31.222656 35.511719 L 26.007812 35.511719 C 24.234375 35.511719 22.878906 36.878906 22.878906 38.660156 L 22.878906 39.816406 C 18.183594 40.339844 14.535156 44.328125 14.535156 49.15625 C 14.535156 54.402344 18.707031 58.597656 23.921875 58.597656 L 61.46875 58.597656 C 66.683594 58.597656 70.855469 54.402344 70.855469 49.15625 C 70.855469 44.328125 67.203125 40.339844 62.511719 39.816406 Z M 43.738281 19.773438 C 43.738281 19.144531 44.152344 18.722656 44.78125 18.722656 L 53.125 18.722656 C 53.75 18.722656 54.167969 19.144531 54.167969 19.773438 L 54.167969 20.820312 L 43.738281 20.820312 Z M 32.265625 25.019531 L 38.523438 25.019531 C 38.835938 25.019531 39.042969 24.914062 39.25 24.703125 L 41.023438 22.921875 L 55.210938 22.921875 C 58.128906 22.921875 60.425781 25.230469 60.425781 28.167969 L 60.425781 30.265625 C 60.425781 30.894531 60.007812 31.316406 59.382812 31.316406 L 32.265625 31.316406 C 31.636719 31.316406 31.222656 30.894531 31.222656 30.265625 L 31.222656 26.070312 C 31.222656 25.4375 31.636719 25.019531 32.265625 25.019531 Z M 14.535156 31.316406 L 6.191406 31.316406 L 6.191406 25.019531 L 14.535156 25.019531 Z M 16.621094 27.117188 L 29.136719 27.117188 L 29.136719 29.21875 L 16.621094 29.21875 Z M 33.308594 33.414062 L 58.339844 33.414062 L 58.339844 35.511719 L 33.308594 35.511719 Z M 24.964844 38.660156 C 24.964844 38.03125 25.378906 37.613281 26.007812 37.613281 L 59.382812 37.613281 C 60.007812 37.613281 60.425781 38.03125 60.425781 38.660156 L 60.425781 39.710938 L 24.964844 39.710938 Z M 61.46875 56.5 L 23.921875 56.5 C 19.851562 56.5 16.621094 53.246094 16.621094 49.15625 C 16.621094 45.0625 19.851562 41.808594 23.921875 41.808594 L 61.46875 41.808594 C 65.535156 41.808594 68.769531 45.0625 68.769531 49.15625 C 68.769531 53.246094 65.535156 56.5 61.46875 56.5 Z M 61.46875 56.5 " fill-opacity="1" fill-rule="nonzero"/></g><path fill="#000000" d="M 23.921875 43.910156 C 21 43.910156 18.707031 46.21875 18.707031 49.15625 C 18.707031 52.09375 21 54.402344 23.921875 54.402344 C 26.839844 54.402344 29.136719 52.09375 29.136719 49.15625 C 29.136719 46.21875 26.839844 43.910156 23.921875 43.910156 Z M 23.921875 52.304688 C 22.148438 52.304688 20.792969 50.9375 20.792969 49.15625 C 20.792969 47.371094 22.148438 46.007812 23.921875 46.007812 C 25.691406 46.007812 27.050781 47.371094 27.050781 49.15625 C 27.050781 50.9375 25.691406 52.304688 23.921875 52.304688 Z M 23.921875 52.304688 " fill-opacity="1" fill-rule="nonzero"/><path fill="#000000" d="M 24.964844 49.15625 C 24.964844 49.292969 24.9375 49.429688 24.882812 49.558594 C 24.832031 49.683594 24.753906 49.796875 24.65625 49.898438 C 24.558594 49.996094 24.445312 50.070312 24.320312 50.125 C 24.191406 50.179688 24.058594 50.203125 23.921875 50.203125 C 23.78125 50.203125 23.648438 50.179688 23.519531 50.125 C 23.394531 50.070312 23.28125 49.996094 23.183594 49.898438 C 23.085938 49.796875 23.007812 49.683594 22.957031 49.558594 C 22.902344 49.429688 22.878906 49.292969 22.878906 49.15625 C 22.878906 49.015625 22.902344 48.882812 22.957031 48.753906 C 23.007812 48.625 23.085938 48.511719 23.183594 48.414062 C 23.28125 48.316406 23.394531 48.238281 23.519531 48.1875 C 23.648438 48.132812 23.78125 48.105469 23.921875 48.105469 C 24.058594 48.105469 24.191406 48.132812 24.320312 48.1875 C 24.445312 48.238281 24.558594 48.316406 24.65625 48.414062 C 24.753906 48.511719 24.832031 48.625 24.882812 48.753906 C 24.9375 48.882812 24.964844 49.015625 24.964844 49.15625 Z M 24.964844 49.15625 " fill-opacity="1" fill-rule="nonzero"/><path fill="#000000" d="M 36.4375 43.910156 C 33.515625 43.910156 31.222656 46.21875 31.222656 49.15625 C 31.222656 52.09375 33.515625 54.402344 36.4375 54.402344 C 39.355469 54.402344 41.652344 52.09375 41.652344 49.15625 C 41.652344 46.21875 39.355469 43.910156 36.4375 43.910156 Z M 36.4375 52.304688 C 34.664062 52.304688 33.308594 50.9375 33.308594 49.15625 C 33.308594 47.371094 34.664062 46.007812 36.4375 46.007812 C 38.207031 46.007812 39.566406 47.371094 39.566406 49.15625 C 39.566406 50.9375 38.207031 52.304688 36.4375 52.304688 Z M 36.4375 52.304688 " fill-opacity="1" fill-rule="nonzero"/><path fill="#000000" d="M 37.480469 49.15625 C 37.480469 49.292969 37.453125 49.429688 37.398438 49.558594 C 37.347656 49.683594 37.269531 49.796875 37.171875 49.898438 C 37.074219 49.996094 36.960938 50.070312 36.835938 50.125 C 36.707031 50.179688 36.574219 50.203125 36.4375 50.203125 C 36.296875 50.203125 36.164062 50.179688 36.035156 50.125 C 35.910156 50.070312 35.796875 49.996094 35.699219 49.898438 C 35.601562 49.796875 35.523438 49.683594 35.472656 49.558594 C 35.417969 49.429688 35.394531 49.292969 35.394531 49.15625 C 35.394531 49.015625 35.417969 48.882812 35.472656 48.753906 C 35.523438 48.625 35.601562 48.511719 35.699219 48.414062 C 35.796875 48.316406 35.910156 48.238281 36.035156 48.1875 C 36.164062 48.132812 36.296875 48.105469 36.4375 48.105469 C 36.574219 48.105469 36.707031 48.132812 36.835938 48.1875 C 36.960938 48.238281 37.074219 48.316406 37.171875 48.414062 C 37.269531 48.511719 37.347656 48.625 37.398438 48.753906 C 37.453125 48.882812 37.480469 49.015625 37.480469 49.15625 Z M 37.480469 49.15625 " fill-opacity="1" fill-rule="nonzero"/><path fill="#000000" d="M 48.953125 43.910156 C 46.03125 43.910156 43.738281 46.21875 43.738281 49.15625 C 43.738281 52.09375 46.03125 54.402344 48.953125 54.402344 C 51.871094 54.402344 54.167969 52.09375 54.167969 49.15625 C 54.167969 46.21875 51.871094 43.910156 48.953125 43.910156 Z M 48.953125 52.304688 C 47.179688 52.304688 45.824219 50.9375 45.824219 49.15625 C 45.824219 47.371094 47.179688 46.007812 48.953125 46.007812 C 50.722656 46.007812 52.082031 47.371094 52.082031 49.15625 C 52.082031 50.9375 50.722656 52.304688 48.953125 52.304688 Z M 48.953125 52.304688 " fill-opacity="1" fill-rule="nonzero"/><path fill="#000000" d="M 49.996094 49.15625 C 49.996094 49.292969 49.96875 49.429688 49.914062 49.558594 C 49.863281 49.683594 49.785156 49.796875 49.6875 49.898438 C 49.589844 49.996094 49.476562 50.070312 49.351562 50.125 C 49.222656 50.179688 49.089844 50.203125 48.953125 50.203125 C 48.8125 50.203125 48.679688 50.179688 48.550781 50.125 C 48.425781 50.070312 48.3125 49.996094 48.214844 49.898438 C 48.117188 49.796875 48.039062 49.683594 47.988281 49.558594 C 47.933594 49.429688 47.910156 49.292969 47.910156 49.15625 C 47.910156 49.015625 47.933594 48.882812 47.988281 48.753906 C 48.039062 48.625 48.117188 48.511719 48.214844 48.414062 C 48.3125 48.316406 48.425781 48.238281 48.550781 48.1875 C 48.679688 48.132812 48.8125 48.105469 48.953125 48.105469 C 49.089844 48.105469 49.222656 48.132812 49.351562 48.1875 C 49.476562 48.238281 49.589844 48.316406 49.6875 48.414062 C 49.785156 48.511719 49.863281 48.625 49.914062 48.753906 C 49.96875 48.882812 49.996094 49.015625 49.996094 49.15625 Z M 49.996094 49.15625 " fill-opacity="1" fill-rule="nonzero"/><path fill="#000000" d="M 61.46875 43.910156 C 58.546875 43.910156 56.253906 46.21875 56.253906 49.15625 C 56.253906 52.09375 58.546875 54.402344 61.46875 54.402344 C 64.386719 54.402344 66.683594 52.09375 66.683594 49.15625 C 66.683594 46.21875 64.386719 43.910156 61.46875 43.910156 Z M 61.46875 52.304688 C 59.695312 52.304688 58.339844 50.9375 58.339844 49.15625 C 58.339844 47.371094 59.695312 46.007812 61.46875 46.007812 C 63.238281 46.007812 64.597656 47.371094 64.597656 49.15625 C 64.597656 50.9375 63.238281 52.304688 61.46875 52.304688 Z M 61.46875 52.304688 " fill-opacity="1" fill-rule="nonzero"/><path fill="#000000" d="M 62.511719 49.15625 C 62.511719 49.292969 62.484375 49.429688 62.429688 49.558594 C 62.378906 49.683594 62.300781 49.796875 62.203125 49.898438 C 62.105469 49.996094 61.992188 50.070312 61.867188 50.125 C 61.738281 50.179688 61.605469 50.203125 61.46875 50.203125 C 61.328125 50.203125 61.195312 50.179688 61.066406 50.125 C 60.941406 50.070312 60.828125 49.996094 60.730469 49.898438 C 60.632812 49.796875 60.554688 49.683594 60.503906 49.558594 C 60.449219 49.429688 60.425781 49.292969 60.425781 49.15625 C 60.425781 49.015625 60.449219 48.882812 60.503906 48.753906 C 60.554688 48.625 60.632812 48.511719 60.730469 48.414062 C 60.828125 48.316406 60.941406 48.238281 61.066406 48.1875 C 61.195312 48.132812 61.328125 48.105469 61.46875 48.105469 C 61.605469 48.105469 61.738281 48.132812 61.867188 48.1875 C 61.992188 48.238281 62.105469 48.316406 62.203125 48.414062 C 62.300781 48.511719 62.378906 48.625 62.429688 48.753906 C 62.484375 48.882812 62.511719 49.015625 62.511719 49.15625 Z M 62.511719 49.15625 " fill-opacity="1" fill-rule="nonzero"/><path fill="#000000" d="M 34.351562 29.21875 L 53.125 29.21875 C 53.75 29.21875 54.167969 28.796875 54.167969 28.167969 C 54.167969 27.539062 53.75 27.117188 53.125 27.117188 L 34.351562 27.117188 C 33.722656 27.117188 33.308594 27.539062 33.308594 28.167969 C 33.308594 28.796875 33.722656 29.21875 34.351562 29.21875 Z M 34.351562 29.21875 " fill-opacity="1" fill-rule="nonzero"/><path fill="#000000" d="M 58.339844 28.167969 C 58.339844 28.308594 58.3125 28.441406 58.257812 28.570312 C 58.207031 28.699219 58.128906 28.8125 58.03125 28.910156 C 57.933594 29.007812 57.820312 29.082031 57.695312 29.136719 C 57.566406 29.191406 57.433594 29.21875 57.296875 29.21875 C 57.15625 29.21875 57.023438 29.191406 56.894531 29.136719 C 56.769531 29.082031 56.65625 29.007812 56.558594 28.910156 C 56.460938 28.8125 56.382812 28.699219 56.332031 28.570312 C 56.277344 28.441406 56.253906 28.308594 56.253906 28.167969 C 56.253906 28.027344 56.277344 27.894531 56.332031 27.765625 C 56.382812 27.636719 56.460938 27.523438 56.558594 27.425781 C 56.65625 27.328125 56.769531 27.25 56.894531 27.199219 C 57.023438 27.144531 57.15625 27.117188 57.296875 27.117188 C 57.433594 27.117188 57.566406 27.144531 57.695312 27.199219 C 57.820312 27.25 57.933594 27.328125 58.03125 27.425781 C 58.128906 27.523438 58.207031 27.636719 58.257812 27.765625 C 58.3125 27.894531 58.339844 28.027344 58.339844 28.167969 Z M 58.339844 28.167969 " fill-opacity="1" fill-rule="nonzero"/></svg>